NotoSansArmenian-Light.ufo
<glyph name="dieresiscomb" format="2">
  <unicode hex="0308"/>
  <anchor x="-1" y="528" name="_top"/>
  <outline>
    <contour>
      <point x="-117" y="678" type="curve" smooth="yes"/>
      <point x="-117" y="661"/>
      <point x="-112" y="647"/>
      <point x="-94" y="647" type="curve" smooth="yes"/>
      <point x="-72" y="647"/>
      <point x="-69" y="661"/>
      <point x="-69" y="678" type="curve" smooth="yes"/>
      <point x="-69" y="694"/>
      <point x="-72" y="709"/>
      <point x="-94" y="709" type="curve" smooth="yes"/>
      <point x="-112" y="709"/>
      <point x="-117" y="694"/>
    </contour>
    <contour>
      <point x="68" y="678" type="curve" smooth="yes"/>
      <point x="68" y="661"/>
      <point x="73" y="647"/>
      <point x="91" y="647" type="curve" smooth="yes"/>
      <point x="113" y="647"/>
      <point x="116" y="661"/>
      <point x="116" y="678" type="curve" smooth="yes"/>
      <point x="116" y="694"/>
      <point x="113" y="709"/>
      <point x="91" y="709" type="curve" smooth="yes"/>
      <point x="73" y="709"/>
      <point x="68" y="694"/>
    </contour>
  </outline>
</glyph>
<glyph name="uni0531" format="2">
  <advance width="792"/>
  <unicode hex="0531"/>
  <note>
uni0531
</note>
  <anchor x="352" y="714" name="top"/>
  <outline>
    <contour>
      <point x="350" y="-10" type="curve" smooth="yes"/>
      <point x="505" y="-10"/>
      <point x="613" y="74"/>
      <point x="613" y="252" type="curve" smooth="yes"/>
      <point x="613" y="714" type="line"/>
      <point x="587" y="714" type="line"/>
      <point x="587" y="244" type="line" smooth="yes"/>
      <point x="587" y="92"/>
      <point x="493" y="15"/>
      <point x="351" y="15" type="curve" smooth="yes"/>
      <point x="202" y="15"/>
      <point x="116" y="96"/>
      <point x="116" y="256" type="curve" smooth="yes"/>
      <point x="116" y="714" type="line"/>
      <point x="90" y="714" type="line"/>
      <point x="90" y="254" type="line" smooth="yes"/>
      <point x="90" y="81"/>
      <point x="185" y="-10"/>
    </contour>
    <contour>
      <point x="596" y="204" type="curve"/>
      <point x="594" y="179" type="line"/>
      <point x="605" y="182"/>
      <point x="617" y="183"/>
      <point x="629" y="183" type="curve" smooth="yes"/>
      <point x="701" y="183"/>
      <point x="744" y="142"/>
      <point x="744" y="35" type="curve" smooth="yes"/>
      <point x="744" y="0" type="line"/>
      <point x="770" y="0" type="line"/>
      <point x="770" y="36" type="line" smooth="yes"/>
      <point x="770" y="157"/>
      <point x="719" y="208"/>
      <point x="631" y="208" type="curve" smooth="yes"/>
      <point x="618" y="208"/>
      <point x="607" y="207"/>
    </contour>
  </outline>
</glyph>
<glyph name="uni0533" format="2">
  <advance width="735"/>
  <unicode hex="0533"/>
  <note>
uni0533
</note>
  <outline>
    <contour>
      <point x="535" y="0" type="line"/>
      <point x="535" y="452" type="line" smooth="yes"/>
      <point x="535" y="640"/>
      <point x="448" y="724"/>
      <point x="299" y="724" type="curve" smooth="yes"/>
      <point x="144" y="724"/>
      <point x="65" y="642"/>
      <point x="65" y="514" type="curve" smooth="yes"/>
      <point x="65" y="376"/>
      <point x="150" y="304"/>
      <point x="315" y="304" type="curve" smooth="yes"/>
      <point x="713" y="304" type="line"/>
      <point x="713" y="329" type="line"/>
      <point x="316" y="329" type="line" smooth="yes"/>
      <point x="167" y="329"/>
      <point x="91" y="390"/>
      <point x="91" y="514" type="curve" smooth="yes"/>
      <point x="91" y="628"/>
      <point x="161" y="699"/>
      <point x="300" y="699" type="curve" smooth="yes"/>
      <point x="431" y="699"/>
      <point x="509" y="622"/>
      <point x="509" y="460" type="curve" smooth="yes"/>
      <point x="509" y="0" type="line"/>
    </contour>
  </outline>
</glyph>
<glyph name="uni0534" format="2">
  <advance width="726"/>
  <unicode hex="0534"/>
  <note>
uni0534
</note>
  <outline>
    <contour>
      <point x="542" y="0" type="line"/>
      <point x="542" y="462" type="line" smooth="yes"/>
      <point x="542" y="640"/>
      <point x="449" y="724"/>
      <point x="299" y="724" type="curve" smooth="yes"/>
      <point x="139" y="724"/>
      <point x="59" y="633"/>
      <point x="59" y="460" type="curve"/>
      <point x="85" y="460" type="line"/>
      <point x="85" y="620"/>
      <point x="156" y="699"/>
      <point x="300" y="699" type="curve" smooth="yes"/>
      <point x="437" y="699"/>
      <point x="516" y="622"/>
      <point x="516" y="470" type="curve" smooth="yes"/>
      <point x="516" y="0" type="line"/>
    </contour>
    <contour>
      <point x="528" y="329" type="line"/>
      <point x="528" y="304" type="line"/>
      <point x="694" y="304" type="line"/>
      <point x="694" y="329" type="line"/>
    </contour>
  </outline>
</glyph>
<glyph name="uni0535" format="2">
  <advance width="663"/>
  <unicode hex="0535"/>
  <note>
uni0535
</note>
  <outline>
    <contour>
      <point x="90" y="714" type="line"/>
      <point x="90" y="252" type="line" smooth="yes"/>
      <point x="90" y="74"/>
      <point x="188" y="-10"/>
      <point x="343" y="-10" type="curve" smooth="yes"/>
      <point x="508" y="-10"/>
      <point x="593" y="81"/>
      <point x="593" y="254" type="curve"/>
      <point x="567" y="254" type="line"/>
      <point x="567" y="94"/>
      <point x="491" y="15"/>
      <point x="342" y="15" type="curve" smooth="yes"/>
      <point x="200" y="15"/>
      <point x="116" y="92"/>
      <point x="116" y="244" type="curve" smooth="yes"/>
      <point x="116" y="714" type="line"/>
    </contour>
    <contour>
      <point x="109" y="609" type="line"/>
      <point x="595" y="609" type="line"/>
      <point x="595" y="634" type="line"/>
      <point x="109" y="634" type="line"/>
    </contour>
  </outline>
</glyph>
<glyph name="uni0536" format="2">
  <advance width="628"/>
  <unicode hex="0536"/>
  <note>
uni0536
</note>
  <outline>
    <contour>
      <point x="303" y="285" type="curve" smooth="yes"/>
      <point x="467" y="285"/>
      <point x="542" y="382"/>
      <point x="542" y="507" type="curve" smooth="yes"/>
      <point x="542" y="631"/>
      <point x="475" y="728"/>
      <point x="309" y="728" type="curve" smooth="yes"/>
      <point x="156" y="728"/>
      <point x="66" y="642"/>
      <point x="66" y="507" type="curve" smooth="yes"/>
      <point x="66" y="380"/>
      <point x="144" y="285"/>
    </contour>
    <contour>
      <point x="562" y="-1" type="line"/>
      <point x="588" y="-1" type="line"/>
      <point x="588" y="49" type="line" smooth="yes"/>
      <point x="588" y="114"/>
      <point x="555" y="145"/>
      <point x="498" y="145" type="curve" smooth="yes"/>
      <point x="102" y="145" type="line"/>
      <point x="102" y="204" type="line"/>
      <point x="76" y="204" type="line"/>
      <point x="76" y="0" type="line"/>
      <point x="102" y="0" type="line"/>
      <point x="102" y="120" type="line"/>
      <point x="498" y="120" type="line" smooth="yes"/>
      <point x="538" y="120"/>
      <point x="562" y="98"/>
      <point x="562" y="48" type="curve" smooth="yes"/>
    </contour>
    <contour>
      <point x="105" y="126" type="line"/>
      <point x="301" y="126"/>
      <point x="542" y="224"/>
      <point x="542" y="507" type="curve"/>
      <point x="520" y="507" type="line"/>
      <point x="520" y="248"/>
      <point x="294" y="145"/>
      <point x="105" y="145" type="curve"/>
    </contour>
    <contour>
      <point x="303" y="310" type="curve" smooth="yes"/>
      <point x="161" y="310"/>
      <point x="93" y="391"/>
      <point x="93" y="507" type="curve" smooth="yes"/>
      <point x="93" y="630"/>
      <point x="171" y="703"/>
      <point x="309" y="703" type="curve" smooth="yes"/>
      <point x="457" y="703"/>
      <point x="515" y="616"/>
      <point x="515" y="507" type="curve" smooth="yes"/>
      <point x="515" y="392"/>
      <point x="450" y="310"/>
    </contour>
  </outline>
</glyph>
<glyph name="uni0537" format="2">
  <advance width="619"/>
  <unicode hex="0537"/>
  <note>
uni0537
</note>
  <outline>
    <contour>
      <point x="107" y="479" type="line"/>
      <point x="107" y="454" type="line"/>
      <point x="523" y="454" type="line"/>
      <point x="523" y="479" type="line"/>
    </contour>
    <contour>
      <point x="465" y="0" type="line" smooth="yes"/>
      <point x="505" y="0"/>
      <point x="529" y="-22"/>
      <point x="529" y="-72" type="curve" smooth="yes"/>
      <point x="529" y="-140" type="line"/>
      <point x="555" y="-140" type="line"/>
      <point x="555" y="-71" type="line" smooth="yes"/>
      <point x="555" y="-6"/>
      <point x="522" y="25"/>
      <point x="465" y="25" type="curve" smooth="yes"/>
      <point x="122" y="25" type="line"/>
      <point x="122" y="714" type="line"/>
      <point x="96" y="714" type="line"/>
      <point x="96" y="0" type="line"/>
    </contour>
  </outline>
</glyph>
<glyph name="uni0538" format="2">
  <advance width="663"/>
  <unicode hex="0538"/>
  <note>
uni0538
</note>
  <outline>
    <contour>
      <point x="90" y="0" type="line"/>
      <point x="116" y="0" type="line"/>
      <point x="116" y="470" type="line" smooth="yes"/>
      <point x="116" y="622"/>
      <point x="200" y="699"/>
      <point x="342" y="699" type="curve" smooth="yes"/>
      <point x="491" y="699"/>
      <point x="567" y="620"/>
      <point x="567" y="460" type="curve"/>
      <point x="593" y="460" type="line"/>
      <point x="593" y="633"/>
      <point x="508" y="724"/>
      <point x="343" y="724" type="curve" smooth="yes"/>
      <point x="188" y="724"/>
      <point x="90" y="640"/>
      <point x="90" y="462" type="curve" smooth="yes"/>
    </contour>
    <contour>
      <point x="109" y="25" type="line"/>
      <point x="109" y="0" type="line"/>
      <point x="595" y="0" type="line"/>
      <point x="595" y="25" type="line"/>
    </contour>
  </outline>
</glyph>
<glyph name="uni0539" format="2">
  <advance width="693"/>
  <unicode hex="0539"/>
  <note>
uni0539
</note>
  <outline>
    <contour>
      <point x="90" y="0" type="line"/>
      <point x="116" y="0" type="line"/>
      <point x="116" y="470" type="line" smooth="yes"/>
      <point x="116" y="622"/>
      <point x="200" y="699"/>
      <point x="342" y="699" type="curve" smooth="yes"/>
      <point x="491" y="699"/>
      <point x="567" y="610"/>
      <point x="567" y="450" type="curve"/>
      <point x="593" y="450" type="line"/>
      <point x="593" y="623"/>
      <point x="508" y="724"/>
      <point x="343" y="724" type="curve" smooth="yes"/>
      <point x="188" y="724"/>
      <point x="90" y="640"/>
      <point x="90" y="462" type="curve" smooth="yes"/>
    </contour>
    <contour>
      <point x="696" y="468" type="line"/>
      <point x="484" y="468" type="line" smooth="yes"/>
      <point x="354" y="468"/>
      <point x="285" y="421"/>
      <point x="285" y="316" type="curve" smooth="yes"/>
      <point x="285" y="222"/>
      <point x="344" y="175"/>
      <point x="429" y="175" type="curve" smooth="yes"/>
      <point x="545" y="175"/>
      <point x="593" y="241"/>
      <point x="593" y="443" type="curve"/>
      <point x="696" y="443" type="line"/>
    </contour>
    <contour>
      <point x="567" y="443" type="line"/>
      <point x="567" y="257"/>
      <point x="525" y="200"/>
      <point x="432" y="200" type="curve" smooth="yes"/>
      <point x="364" y="200"/>
      <point x="312" y="241"/>
      <point x="312" y="316" type="curve" smooth="yes"/>
      <point x="312" y="407"/>
      <point x="371" y="443"/>
      <point x="484" y="443" type="curve" smooth="yes"/>
    </contour>
  </outline>
</glyph>
<glyph name="uni053A" format="2">
  <advance width="742"/>
  <unicode hex="053A"/>
  <note>
uni053A
</note>
  <outline>
    <contour>
      <point x="568" y="714" type="line"/>
      <point x="542" y="714" type="line"/>
      <point x="542" y="254" type="line" smooth="yes"/>
      <point x="542" y="102"/>
      <point x="458" y="15"/>
      <point x="316" y="15" type="curve" smooth="yes"/>
      <point x="167" y="15"/>
      <point x="91" y="88"/>
      <point x="91" y="235" type="curve"/>
      <point x="65" y="235" type="line"/>
      <point x="65" y="74"/>
      <point x="150" y="-10"/>
      <point x="315" y="-10" type="curve" smooth="yes"/>
      <point x="470" y="-10"/>
      <point x="568" y="84"/>
      <point x="568" y="262" type="curve" smooth="yes"/>
    </contour>
    <contour>
      <point x="335" y="480" type="line" smooth="yes"/>
      <point x="170" y="480"/>
      <point x="65" y="396"/>
      <point x="65" y="235" type="curve"/>
      <point x="91" y="235" type="line"/>
      <point x="91" y="382"/>
      <point x="187" y="455"/>
      <point x="336" y="455" type="curve" smooth="yes"/>
      <point x="713" y="455" type="line"/>
      <point x="713" y="480" type="line"/>
    </contour>
  </outline>
</glyph>
<glyph name="uni053B" format="2">
  <advance width="651"/>
  <unicode hex="053B"/>
  <note>
uni053B
</note>
  <outline>
    <contour>
      <point x="96" y="714" type="line"/>
      <point x="96" y="0" type="line"/>
      <point x="122" y="0" type="line"/>
      <point x="122" y="399" type="line"/>
      <point x="119" y="399" type="line"/>
      <point x="121" y="447"/>
      <point x="122" y="485"/>
      <point x="122" y="528" type="curve" smooth="yes"/>
      <point x="122" y="714" type="line"/>
    </contour>
    <contour>
      <point x="106" y="200" type="line"/>
      <point x="122" y="200" type="line"/>
      <point x="122" y="284" type="line" smooth="yes"/>
      <point x="122" y="433"/>
      <point x="208" y="513"/>
      <point x="350" y="513" type="curve" smooth="yes"/>
      <point x="493" y="513"/>
      <point x="565" y="441"/>
      <point x="565" y="294" type="curve" smooth="yes"/>
      <point x="565" y="274" type="line"/>
      <point x="591" y="274" type="line"/>
      <point x="591" y="294" type="line" smooth="yes"/>
      <point x="591" y="456"/>
      <point x="508" y="538"/>
      <point x="351" y="538" type="curve" smooth="yes"/>
      <point x="196" y="538"/>
      <point x="106" y="452"/>
      <point x="106" y="296" type="curve" smooth="yes"/>
    </contour>
  </outline>
</glyph>
<glyph name="uni053C" format="2">
  <advance width="364"/>
  <unicode hex="053C"/>
  <note>
uni053C
</note>
  <outline>
    <contour>
      <point x="96" y="0" type="line"/>
      <point x="341" y="0" type="line"/>
      <point x="341" y="25" type="line"/>
      <point x="122" y="25" type="line"/>
      <point x="122" y="714" type="line"/>
      <point x="96" y="714" type="line"/>
    </contour>
  </outline>
</glyph>
<glyph name="uni053D" format="2">
  <advance width="698"/>
  <unicode hex="053D"/>
  <note>
uni053D
</note>
  <outline>
    <contour>
      <point x="96" y="0" type="line"/>
      <point x="122" y="0" type="line"/>
      <point x="122" y="714" type="line"/>
      <point x="96" y="714" type="line"/>
    </contour>
    <contour>
      <point x="330" y="482" type="line"/>
      <point x="330" y="379" type="line" smooth="yes"/>
      <point x="330" y="259"/>
      <point x="380" y="197"/>
      <point x="492" y="197" type="curve" smooth="yes"/>
      <point x="593" y="197"/>
      <point x="650" y="259"/>
      <point x="650" y="379" type="curve" smooth="yes"/>
      <point x="650" y="482" type="line"/>
      <point x="624" y="482" type="line"/>
      <point x="624" y="384" type="line" smooth="yes"/>
      <point x="624" y="271"/>
      <point x="582" y="222"/>
      <point x="492" y="222" type="curve" smooth="yes"/>
      <point x="398" y="222"/>
      <point x="356" y="271"/>
      <point x="356" y="384" type="curve" smooth="yes"/>
      <point x="356" y="482" type="line"/>
    </contour>
    <contour>
      <point x="109" y="482" type="line"/>
      <point x="109" y="457" type="line"/>
      <point x="356" y="457" type="line"/>
      <point x="356" y="482" type="line"/>
    </contour>
  </outline>
</glyph>
<glyph name="uni053E" format="2">
  <advance width="663"/>
  <unicode hex="053E"/>
  <note>
uni053E
</note>
  <outline>
    <contour>
      <point x="61" y="277" type="curve" smooth="yes"/>
      <point x="61" y="101"/>
      <point x="145" y="-10"/>
      <point x="325" y="-10" type="curve" smooth="yes"/>
      <point x="501" y="-10"/>
      <point x="591" y="107"/>
      <point x="591" y="276" type="curve" smooth="yes"/>
      <point x="591" y="432"/>
      <point x="484" y="557"/>
      <point x="248" y="595" type="curve" smooth="yes"/>
      <point x="136" y="613"/>
      <point x="91" y="645"/>
      <point x="84" y="714" type="curve"/>
      <point x="60" y="714" type="line"/>
      <point x="66" y="631"/>
      <point x="123" y="592"/>
      <point x="229" y="575" type="curve" smooth="yes"/>
      <point x="459" y="538"/>
      <point x="564" y="422"/>
      <point x="564" y="276" type="curve" smooth="yes"/>
      <point x="564" y="124"/>
      <point x="487" y="15"/>
      <point x="325" y="15" type="curve" smooth="yes"/>
      <point x="167" y="15"/>
      <point x="88" y="116"/>
      <point x="88" y="277" type="curve" smooth="yes"/>
      <point x="88" y="507"/>
      <point x="353" y="699"/>
      <point x="603" y="699" type="curve"/>
      <point x="603" y="724" type="line"/>
      <point x="342" y="724"/>
      <point x="61" y="518"/>
    </contour>
  </outline>
</glyph>
<glyph name="uni053F" format="2">
  <advance width="657"/>
  <unicode hex="053F"/>
  <note>
uni053F
</note>
  <outline>
    <contour>
      <point x="564" y="0" type="line"/>
      <point x="564" y="524" type="line"/>
      <point x="538" y="524" type="line"/>
      <point x="538" y="366" type="line"/>
      <point x="541" y="366" type="line"/>
      <point x="539" y="318"/>
      <point x="538" y="279"/>
      <point x="538" y="236" type="curve" smooth="yes"/>
      <point x="538" y="0" type="line"/>
    </contour>
    <contour>
      <point x="554" y="514" type="line"/>
      <point x="538" y="514" type="line"/>
      <point x="538" y="480" type="line" smooth="yes"/>
      <point x="538" y="328"/>
      <point x="452" y="251"/>
      <point x="310" y="251" type="curve" smooth="yes"/>
      <point x="161" y="251"/>
      <point x="105" y="330"/>
      <point x="105" y="490" type="curve" smooth="yes"/>
      <point x="105" y="714" type="line"/>
      <point x="79" y="714" type="line"/>
      <point x="79" y="490" type="line" smooth="yes"/>
      <point x="79" y="317"/>
      <point x="144" y="226"/>
      <point x="309" y="226" type="curve" smooth="yes"/>
      <point x="464" y="226"/>
      <point x="554" y="312"/>
      <point x="554" y="468" type="curve" smooth="yes"/>
    </contour>
  </outline>
</glyph>
<glyph name="uni0540" format="2">
  <advance width="489"/>
  <unicode hex="0540"/>
  <note>
uni0540
</note>
  <outline>
    <contour>
      <point x="443" y="679" type="curve"/>
      <point x="453" y="702" type="line"/>
      <point x="416" y="717"/>
      <point x="373" y="724"/>
      <point x="325" y="724" type="curve" smooth="yes"/>
      <point x="193" y="724"/>
      <point x="107" y="645"/>
      <point x="89" y="484" type="curve" smooth="yes"/>
      <point x="43" y="62" type="line"/>
      <point x="69" y="62" type="line"/>
      <point x="115" y="485" type="line" smooth="yes"/>
      <point x="130" y="622"/>
      <point x="204" y="699"/>
      <point x="324" y="699" type="curve" smooth="yes"/>
      <point x="369" y="699"/>
      <point x="409" y="692"/>
    </contour>
    <contour>
      <point x="43" y="62" type="line"/>
      <point x="355" y="30" type="line" smooth="yes"/>
      <point x="395" y="26"/>
      <point x="419" y="-4"/>
      <point x="419" y="-54" type="curve" smooth="yes"/>
      <point x="419" y="-62" type="line"/>
      <point x="445" y="-62" type="line"/>
      <point x="445" y="-53" type="line" smooth="yes"/>
      <point x="445" y="12"/>
      <point x="414" y="49"/>
      <point x="357" y="55" type="curve" smooth="yes"/>
      <point x="71" y="84" type="line"/>
    </contour>
  </outline>
</glyph>
<glyph name="uni0541" format="2">
  <advance width="613"/>
  <unicode hex="0541"/>
  <note>
uni0541
</note>
  <outline>
    <contour>
      <point x="277" y="724" type="curve" smooth="yes"/>
      <point x="140" y="724"/>
      <point x="50" y="643"/>
      <point x="50" y="517" type="curve" smooth="yes"/>
      <point x="50" y="390"/>
      <point x="128" y="305"/>
      <point x="265" y="305" type="curve" smooth="yes"/>
      <point x="346" y="305"/>
      <point x="445" y="341"/>
      <point x="504" y="377" type="curve"/>
      <point x="504" y="407" type="line"/>
      <point x="448" y="368"/>
      <point x="354" y="330"/>
      <point x="265" y="330" type="curve" smooth="yes"/>
      <point x="145" y="330"/>
      <point x="77" y="401"/>
      <point x="77" y="517" type="curve" smooth="yes"/>
      <point x="77" y="631"/>
      <point x="155" y="699"/>
      <point x="277" y="699" type="curve" smooth="yes"/>
      <point x="447" y="699"/>
      <point x="497" y="560"/>
      <point x="497" y="432" type="curve" smooth="yes"/>
      <point x="497" y="127"/>
      <point x="339" y="15"/>
      <point x="202" y="15" type="curve"/>
      <point x="202" y="-10" type="line"/>
      <point x="353" y="-10"/>
      <point x="524" y="112"/>
      <point x="524" y="430" type="curve" smooth="yes"/>
      <point x="524" y="573"/>
      <point x="466" y="724"/>
    </contour>
    <contour>
      <point x="568" y="-10" type="curve"/>
      <point x="568" y="30" type="line"/>
      <point x="452" y="190"/>
      <point x="332" y="236"/>
      <point x="225" y="236" type="curve" smooth="yes"/>
      <point x="114" y="236"/>
      <point x="55" y="190"/>
      <point x="55" y="113" type="curve" smooth="yes"/>
      <point x="55" y="31"/>
      <point x="117" y="-10"/>
      <point x="202" y="-10" type="curve"/>
      <point x="202" y="15" type="line"/>
      <point x="134" y="15"/>
      <point x="82" y="50"/>
      <point x="82" y="113" type="curve" smooth="yes"/>
      <point x="82" y="176"/>
      <point x="134" y="211"/>
      <point x="225" y="211" type="curve" smooth="yes"/>
      <point x="340" y="211"/>
      <point x="448" y="157"/>
    </contour>
  </outline>
</glyph>
<glyph name="uni0542" format="2">
  <advance width="726"/>
  <unicode hex="0542"/>
  <note>
uni0542
</note>
  <outline>
    <contour>
      <point x="522" y="0" type="line"/>
      <point x="522" y="462" type="line" smooth="yes"/>
      <point x="522" y="640"/>
      <point x="434" y="724"/>
      <point x="289" y="724" type="curve" smooth="yes"/>
      <point x="134" y="724"/>
      <point x="59" y="633"/>
      <point x="59" y="460" type="curve"/>
      <point x="85" y="460" type="line"/>
      <point x="85" y="620"/>
      <point x="151" y="699"/>
      <point x="290" y="699" type="curve" smooth="yes"/>
      <point x="422" y="699"/>
      <point x="496" y="622"/>
      <point x="496" y="470" type="curve" smooth="yes"/>
      <point x="496" y="0" type="line"/>
    </contour>
    <contour>
      <point x="508" y="25" type="line"/>
      <point x="508" y="0" type="line"/>
      <point x="694" y="0" type="line"/>
      <point x="694" y="25" type="line"/>
    </contour>
  </outline>
</glyph>
<glyph name="uni0543" format="2">
  <advance width="626"/>
  <unicode hex="0543"/>
  <note>
uni0543
</note>
  <outline>
    <contour>
      <point x="559" y="699" type="curve"/>
      <point x="559" y="724" type="line"/>
      <point x="281" y="646"/>
      <point x="61" y="385"/>
      <point x="61" y="157" type="curve" smooth="yes"/>
      <point x="61" y="41"/>
      <point x="115" y="0"/>
      <point x="225" y="0" type="curve"/>
      <point x="560" y="0" type="line"/>
      <point x="560" y="256" type="line" smooth="yes"/>
      <point x="560" y="422"/>
      <point x="484" y="564"/>
      <point x="248" y="602" type="curve" smooth="yes"/>
      <point x="72" y="630" type="line"/>
      <point x="72" y="605" type="line"/>
      <point x="246" y="577" type="line" smooth="yes"/>
      <point x="466" y="542"/>
      <point x="534" y="410"/>
      <point x="534" y="256" type="curve" smooth="yes"/>
      <point x="534" y="25" type="line"/>
      <point x="225" y="25" type="line" smooth="yes"/>
      <point x="132" y="25"/>
      <point x="88" y="56"/>
      <point x="88" y="157" type="curve" smooth="yes"/>
      <point x="88" y="374"/>
      <point x="294" y="620"/>
    </contour>
  </outline>
</glyph>
<glyph name="uni0544" format="2">
  <advance width="785"/>
  <unicode hex="0544"/>
  <note>
uni0544
</note>
  <outline>
    <contour>
      <point x="350" y="-10" type="curve" smooth="yes"/>
      <point x="505" y="-10"/>
      <point x="613" y="74"/>
      <point x="613" y="252" type="curve" smooth="yes"/>
      <point x="613" y="690" type="line"/>
      <point x="763" y="690" type="line"/>
      <point x="763" y="714" type="line"/>
      <point x="587" y="714" type="line"/>
      <point x="587" y="244" type="line" smooth="yes"/>
      <point x="587" y="92"/>
      <point x="493" y="15"/>
      <point x="351" y="15" type="curve" smooth="yes"/>
      <point x="202" y="15"/>
      <point x="116" y="96"/>
      <point x="116" y="256" type="curve" smooth="yes"/>
      <point x="116" y="714" type="line"/>
      <point x="90" y="714" type="line"/>
      <point x="90" y="254" type="line" smooth="yes"/>
      <point x="90" y="81"/>
      <point x="185" y="-10"/>
    </contour>
  </outline>
</glyph>
<glyph name="uni0545" format="2">
  <advance width="607"/>
  <unicode hex="0545"/>
  <note>
uni0545
</note>
  <outline>
    <contour>
      <point x="528" y="551" type="curve" smooth="yes"/>
      <point x="528" y="665"/>
      <point x="451" y="724"/>
      <point x="331" y="724" type="curve" smooth="yes"/>
      <point x="243" y="724"/>
      <point x="172" y="695"/>
      <point x="113" y="650" type="curve"/>
      <point x="127" y="629" type="line"/>
      <point x="192" y="676"/>
      <point x="256" y="699"/>
      <point x="331" y="699" type="curve" smooth="yes"/>
      <point x="433" y="699"/>
      <point x="501" y="651"/>
      <point x="501" y="551" type="curve" smooth="yes"/>
      <point x="501" y="435"/>
      <point x="403" y="384"/>
      <point x="297" y="384" type="curve" smooth="yes"/>
      <point x="44" y="384" type="line"/>
      <point x="44" y="359" type="line"/>
      <point x="297" y="359" type="line" smooth="yes"/>
      <point x="430" y="359"/>
      <point x="523" y="314"/>
      <point x="523" y="194" type="curve" smooth="yes"/>
      <point x="523" y="85"/>
      <point x="449" y="15"/>
      <point x="305" y="15" type="curve" smooth="yes"/>
      <point x="231" y="15"/>
      <point x="155" y="35"/>
      <point x="105" y="60" type="curve"/>
      <point x="105" y="32" type="line"/>
      <point x="156" y="8"/>
      <point x="223" y="-10"/>
      <point x="305" y="-10" type="curve" smooth="yes"/>
      <point x="465" y="-10"/>
      <point x="550" y="72"/>
      <point x="550" y="194" type="curve" smooth="yes"/>
      <point x="550" y="300"/>
      <point x="487" y="358"/>
      <point x="376" y="373" type="curve"/>
      <point x="376" y="375" type="line"/>
      <point x="463" y="390"/>
      <point x="528" y="457"/>
    </contour>
  </outline>
</glyph>
<glyph name="uni0546" format="2">
  <advance width="572"/>
  <unicode hex="0546"/>
  <note>
uni0546
</note>
  <outline>
    <contour>
      <point x="307" y="-10" type="curve"/>
      <point x="434" y="-10"/>
      <point x="502" y="55"/>
      <point x="502" y="188" type="curve" smooth="yes"/>
      <point x="502" y="416" type="line"/>
      <point x="476" y="416" type="line"/>
      <point x="476" y="191" type="line" smooth="yes"/>
      <point x="476" y="74"/>
      <point x="422" y="15"/>
      <point x="307" y="15" type="curve"/>
      <point x="179" y="15"/>
      <point x="124" y="98"/>
      <point x="124" y="216" type="curve"/>
      <point x="97" y="216" type="line"/>
      <point x="97" y="82"/>
      <point x="157" y="-10"/>
    </contour>
    <contour>
      <point x="212" y="622" type="line"/>
      <point x="137" y="622" type="line" smooth="yes"/>
      <point x="97" y="622"/>
      <point x="73" y="644"/>
      <point x="73" y="694" type="curve" smooth="yes"/>
      <point x="73" y="760" type="line"/>
      <point x="47" y="760" type="line"/>
      <point x="47" y="693" type="line" smooth="yes"/>
      <point x="47" y="628"/>
      <point x="80" y="597"/>
      <point x="137" y="597" type="curve" smooth="yes"/>
      <point x="210" y="597" type="line"/>
      <point x="221" y="607" type="line"/>
    </contour>
    <contour>
      <point x="124" y="216" type="line"/>
      <point x="124" y="372"/>
      <point x="186" y="545"/>
      <point x="221" y="607" type="curve"/>
      <point x="196" y="607" type="line"/>
      <point x="161" y="540"/>
      <point x="97" y="391"/>
      <point x="97" y="216" type="curve"/>
    </contour>
  </outline>
</glyph>
<glyph name="uni0547" format="2">
  <advance width="613"/>
  <unicode hex="0547"/>
  <note>
uni0547
</note>
  <outline>
    <contour>
      <point x="355" y="637" type="curve"/>
      <point x="328" y="647" type="line"/>
      <point x="193" y="565"/>
      <point x="69" y="406"/>
      <point x="69" y="247" type="curve" smooth="yes"/>
      <point x="69" y="101"/>
      <point x="153" y="-10"/>
      <point x="303" y="-10" type="curve" smooth="yes"/>
      <point x="464" y="-10"/>
      <point x="531" y="87"/>
      <point x="531" y="226" type="curve" smooth="yes"/>
      <point x="531" y="312" type="line"/>
      <point x="504" y="312" type="line"/>
      <point x="504" y="226" type="line" smooth="yes"/>
      <point x="504" y="103"/>
      <point x="449" y="15"/>
      <point x="303" y="15" type="curve" smooth="yes"/>
      <point x="175" y="15"/>
      <point x="96" y="116"/>
      <point x="96" y="248" type="curve" smooth="yes"/>
      <point x="96" y="404"/>
      <point x="221" y="555"/>
    </contour>
    <contour>
      <point x="82" y="725" type="line"/>
      <point x="76" y="701" type="line"/>
      <point x="539" y="574" type="line"/>
      <point x="545" y="599" type="line"/>
    </contour>
  </outline>
</glyph>
<glyph name="uni0548" format="2">
  <advance width="703"/>
  <unicode hex="0548"/>
  <note>
uni0548
</note>
  <anchor x="351" y="714" name="top"/>
  <outline>
    <contour>
      <point x="86" y="0" type="line"/>
      <point x="112" y="0" type="line"/>
      <point x="112" y="470" type="line" smooth="yes"/>
      <point x="112" y="622"/>
      <point x="206" y="699"/>
      <point x="348" y="699" type="curve" smooth="yes"/>
      <point x="497" y="699"/>
      <point x="583" y="618"/>
      <point x="583" y="458" type="curve" smooth="yes"/>
      <point x="583" y="0" type="line"/>
      <point x="609" y="0" type="line"/>
      <point x="609" y="460" type="line" smooth="yes"/>
      <point x="609" y="633"/>
      <point x="514" y="724"/>
      <point x="349" y="724" type="curve" smooth="yes"/>
      <point x="194" y="724"/>
      <point x="86" y="640"/>
      <point x="86" y="462" type="curve" smooth="yes"/>
    </contour>
  </outline>
</glyph>
<glyph name="uni0549" format="2">
  <advance width="608"/>
  <unicode hex="0549"/>
  <note>
uni0549
</note>
  <outline>
    <contour>
      <point x="268" y="87" type="line"/>
      <point x="455" y="201"/>
      <point x="549" y="343"/>
      <point x="549" y="472" type="curve" smooth="yes"/>
      <point x="549" y="618"/>
      <point x="460" y="724"/>
      <point x="310" y="724" type="curve" smooth="yes"/>
      <point x="149" y="724"/>
      <point x="67" y="632"/>
      <point x="67" y="493" type="curve" smooth="yes"/>
      <point x="67" y="477" type="line"/>
      <point x="94" y="477" type="line"/>
      <point x="94" y="493" type="line" smooth="yes"/>
      <point x="94" y="616"/>
      <point x="164" y="699"/>
      <point x="310" y="699" type="curve" smooth="yes"/>
      <point x="438" y="699"/>
      <point x="522" y="603"/>
      <point x="522" y="471" type="curve" smooth="yes"/>
      <point x="522" y="350"/>
      <point x="427" y="210"/>
      <point x="239" y="96" type="curve"/>
    </contour>
    <contour>
      <point x="510" y="-1" type="curve"/>
      <point x="510" y="26" type="line"/>
      <point x="318" y="38"/>
      <point x="183" y="132"/>
      <point x="67" y="253" type="curve"/>
      <point x="50" y="236" type="line"/>
      <point x="164" y="112"/>
      <point x="315" y="11"/>
    </contour>
  </outline>
</glyph>
<glyph name="uni054A" format="2">
  <advance width="695"/>
  <unicode hex="054A"/>
  <note>
uni054A
</note>
  <outline>
    <contour>
      <point x="82" y="330" type="line"/>
      <point x="108" y="330" type="line"/>
      <point x="108" y="470" type="line" smooth="yes"/>
      <point x="108" y="622"/>
      <point x="202" y="699"/>
      <point x="344" y="699" type="curve" smooth="yes"/>
      <point x="493" y="699"/>
      <point x="579" y="618"/>
      <point x="579" y="458" type="curve" smooth="yes"/>
      <point x="579" y="0" type="line"/>
      <point x="605" y="0" type="line"/>
      <point x="605" y="460" type="line" smooth="yes"/>
      <point x="605" y="633"/>
      <point x="510" y="724"/>
      <point x="345" y="724" type="curve" smooth="yes"/>
      <point x="190" y="724"/>
      <point x="82" y="640"/>
      <point x="82" y="462" type="curve" smooth="yes"/>
    </contour>
    <contour>
      <point x="330" y="170" type="line"/>
      <point x="356" y="170" type="line"/>
      <point x="356" y="714" type="line"/>
      <point x="330" y="714" type="line"/>
    </contour>
  </outline>
</glyph>
<glyph name="uni054B" format="2">
  <advance width="592"/>
  <unicode hex="054B"/>
  <note>
uni054B
</note>
  <outline>
    <contour>
      <point x="512" y="-1" type="line"/>
      <point x="538" y="-1" type="line"/>
      <point x="538" y="49" type="line" smooth="yes"/>
      <point x="538" y="114"/>
      <point x="505" y="145"/>
      <point x="448" y="145" type="curve" smooth="yes"/>
      <point x="122" y="145" type="line"/>
      <point x="122" y="204" type="line"/>
      <point x="96" y="204" type="line"/>
      <point x="96" y="0" type="line"/>
      <point x="122" y="0" type="line"/>
      <point x="122" y="120" type="line"/>
      <point x="448" y="120" type="line" smooth="yes"/>
      <point x="488" y="120"/>
      <point x="512" y="98"/>
      <point x="512" y="48" type="curve" smooth="yes"/>
    </contour>
    <contour>
      <point x="280" y="163" type="curve"/>
      <point x="280" y="232"/>
      <point x="241" y="275"/>
      <point x="187" y="321" type="curve" smooth="yes"/>
      <point x="125" y="373"/>
      <point x="91" y="420"/>
      <point x="91" y="499" type="curve" smooth="yes"/>
      <point x="91" y="636"/>
      <point x="178" y="700"/>
      <point x="306" y="700" type="curve" smooth="yes"/>
      <point x="447" y="700"/>
      <point x="518" y="631"/>
      <point x="518" y="489" type="curve" smooth="yes"/>
      <point x="518" y="355"/>
      <point x="434" y="253"/>
    </contour>
    <contour>
      <point x="198" y="145" type="curve"/>
      <point x="286" y="145" type="line"/>
      <point x="465" y="240"/>
      <point x="545" y="360"/>
      <point x="545" y="489" type="curve" smooth="yes"/>
      <point x="545" y="644"/>
      <point x="463" y="725"/>
      <point x="306" y="725" type="curve" smooth="yes"/>
      <point x="158" y="725"/>
      <point x="64" y="645"/>
      <point x="64" y="499" type="curve" smooth="yes"/>
      <point x="64" y="422"/>
      <point x="93" y="368"/>
      <point x="170" y="303" type="curve" smooth="yes"/>
      <point x="236" y="248"/>
      <point x="257" y="211"/>
      <point x="257" y="156" type="curve"/>
      <point x="245" y="151"/>
      <point x="206" y="145"/>
    </contour>
  </outline>
</glyph>
<glyph name="uni054C" format="2">
  <advance width="777"/>
  <unicode hex="054C"/>
  <note>
uni054C
</note>
  <outline>
    <contour>
      <point x="90" y="0" type="line"/>
      <point x="116" y="0" type="line"/>
      <point x="116" y="470" type="line" smooth="yes"/>
      <point x="116" y="622"/>
      <point x="200" y="699"/>
      <point x="342" y="699" type="curve" smooth="yes"/>
      <point x="491" y="699"/>
      <point x="567" y="618"/>
      <point x="567" y="458" type="curve" smooth="yes"/>
      <point x="567" y="0" type="line"/>
      <point x="593" y="0" type="line"/>
      <point x="593" y="460" type="line" smooth="yes"/>
      <point x="593" y="633"/>
      <point x="508" y="724"/>
      <point x="343" y="724" type="curve" smooth="yes"/>
      <point x="188" y="724"/>
      <point x="90" y="640"/>
      <point x="90" y="462" type="curve" smooth="yes"/>
    </contour>
    <contour>
      <point x="583" y="329" type="line"/>
      <point x="583" y="304" type="line"/>
      <point x="753" y="304" type="line"/>
      <point x="753" y="329" type="line"/>
    </contour>
  </outline>
</glyph>
<glyph name="uni054E" format="2">
  <advance width="735"/>
  <unicode hex="054E"/>
  <note>
uni054E
</note>
  <outline>
    <contour>
      <point x="531" y="0" type="line"/>
      <point x="531" y="714" type="line"/>
      <point x="505" y="714" type="line"/>
      <point x="505" y="297" type="line"/>
      <point x="508" y="297" type="line"/>
      <point x="506" y="249"/>
      <point x="505" y="211"/>
      <point x="505" y="168" type="curve" smooth="yes"/>
      <point x="505" y="0" type="line"/>
    </contour>
    <contour>
      <point x="521" y="499" type="line"/>
      <point x="505" y="499" type="line"/>
      <point x="505" y="415" type="line" smooth="yes"/>
      <point x="505" y="263"/>
      <point x="434" y="186"/>
      <point x="292" y="186" type="curve" smooth="yes"/>
      <point x="143" y="186"/>
      <point x="91" y="265"/>
      <point x="91" y="425" type="curve"/>
      <point x="91" y="495" type="line"/>
      <point x="65" y="495" type="line"/>
      <point x="65" y="425" type="line"/>
      <point x="65" y="252"/>
      <point x="126" y="161"/>
      <point x="291" y="161" type="curve" smooth="yes"/>
      <point x="446" y="161"/>
      <point x="521" y="247"/>
      <point x="521" y="403" type="curve" smooth="yes"/>
    </contour>
    <contour>
      <point x="517" y="25" type="line"/>
      <point x="517" y="0" type="line"/>
      <point x="703" y="0" type="line"/>
      <point x="703" y="25" type="line"/>
    </contour>
  </outline>
</glyph>
<glyph name="uni054F" format="2">
  <advance width="536"/>
  <unicode hex="054F"/>
  <note>
uni054F
</note>
  <outline>
    <contour>
      <point x="484" y="180" type="curve" smooth="yes"/>
      <point x="484" y="298"/>
      <point x="399" y="335"/>
      <point x="272" y="375" type="curve" smooth="yes"/>
      <point x="169" y="407"/>
      <point x="86" y="437"/>
      <point x="86" y="546" type="curve" smooth="yes"/>
      <point x="86" y="653"/>
      <point x="178" y="699"/>
      <point x="284" y="699" type="curve" smooth="yes"/>
      <point x="337" y="699"/>
      <point x="393" y="691"/>
      <point x="455" y="664" type="curve"/>
      <point x="466" y="687" type="line"/>
      <point x="407" y="713"/>
      <point x="349" y="724"/>
      <point x="286" y="724" type="curve" smooth="yes"/>
      <point x="160" y="724"/>
      <point x="59" y="664"/>
      <point x="59" y="544" type="curve" smooth="yes"/>
      <point x="59" y="425"/>
      <point x="142" y="389"/>
      <point x="258" y="352" type="curve" smooth="yes"/>
      <point x="381" y="313"/>
      <point x="457" y="280"/>
      <point x="457" y="181" type="curve" smooth="yes"/>
      <point x="457" y="65"/>
      <point x="360" y="15"/>
      <point x="247" y="15" type="curve" smooth="yes"/>
      <point x="166" y="15"/>
      <point x="104" y="29"/>
      <point x="51" y="48" type="curve"/>
      <point x="51" y="19" type="line"/>
      <point x="99" y="5"/>
      <point x="153" y="-10"/>
      <point x="245" y="-10" type="curve" smooth="yes"/>
      <point x="375" y="-10"/>
      <point x="484" y="51"/>
    </contour>
  </outline>
</glyph>
<glyph name="uni0551" format="2">
  <advance width="663"/>
  <unicode hex="0551"/>
  <note>
uni0551
</note>
  <outline>
    <contour>
      <point x="356" y="379" type="line"/>
      <point x="184" y="397"/>
      <point x="87" y="444"/>
      <point x="87" y="551" type="curve" smooth="yes"/>
      <point x="87" y="646"/>
      <point x="180" y="699"/>
      <point x="320" y="699" type="curve" smooth="yes"/>
      <point x="459" y="699"/>
      <point x="552" y="646"/>
      <point x="552" y="551" type="curve" smooth="yes"/>
      <point x="552" y="456"/>
      <point x="463" y="403"/>
      <point x="349" y="389" type="curve" smooth="yes"/>
      <point x="76" y="356" type="line"/>
      <point x="79" y="331" type="line"/>
      <point x="279" y="359" type="line"/>
      <point x="431" y="359"/>
      <point x="574" y="314"/>
      <point x="574" y="194" type="curve" smooth="yes"/>
      <point x="574" y="85"/>
      <point x="488" y="15"/>
      <point x="321" y="15" type="curve" smooth="yes"/>
      <point x="234" y="15"/>
      <point x="146" y="35"/>
      <point x="88" y="60" type="curve"/>
      <point x="88" y="32" type="line"/>
      <point x="147" y="8"/>
      <point x="224" y="-10"/>
      <point x="319" y="-10" type="curve" smooth="yes"/>
      <point x="503" y="-10"/>
      <point x="601" y="72"/>
      <point x="601" y="194" type="curve" smooth="yes"/>
      <point x="601" y="300"/>
      <point x="506" y="362"/>
      <point x="381" y="372" type="curve"/>
      <point x="381" y="374" type="line"/>
      <point x="495" y="389"/>
      <point x="579" y="457"/>
      <point x="579" y="551" type="curve" smooth="yes"/>
      <point x="579" y="660"/>
      <point x="478" y="724"/>
      <point x="320" y="724" type="curve" smooth="yes"/>
      <point x="161" y="724"/>
      <point x="60" y="660"/>
      <point x="60" y="551" type="curve" smooth="yes"/>
      <point x="60" y="457"/>
      <point x="130" y="377"/>
      <point x="321" y="362" type="curve"/>
    </contour>
  </outline>
</glyph>
<glyph name="uni0552" format="2">
  <advance width="540"/>
  <unicode hex="0552"/>
  <note>
uni0552
</note>
  <outline>
    <contour>
      <point x="96" y="0" type="line"/>
      <point x="122" y="0" type="line"/>
      <point x="122" y="488" type="line"/>
      <point x="162" y="488" type="line" smooth="yes"/>
      <point x="246" y="488"/>
      <point x="265" y="480"/>
      <point x="321" y="360" type="curve" smooth="yes"/>
      <point x="372" y="251"/>
      <point x="395" y="232"/>
      <point x="457" y="232" type="curve" smooth="yes"/>
      <point x="495" y="232" type="line"/>
      <point x="495" y="257" type="line"/>
      <point x="460" y="257" type="line" smooth="yes"/>
      <point x="411" y="257"/>
      <point x="397" y="269"/>
      <point x="345" y="372" type="curve" smooth="yes"/>
      <point x="284" y="493"/>
      <point x="267" y="513"/>
      <point x="166" y="513" type="curve" smooth="yes"/>
      <point x="122" y="513" type="line"/>
      <point x="122" y="714" type="line"/>
      <point x="96" y="714" type="line"/>
    </contour>
  </outline>
</glyph>
<glyph name="uni0553" format="2">
  <advance width="727"/>
  <unicode hex="0553"/>
  <note>
uni0553
</note>
  <outline>
    <contour>
      <point x="377" y="724" type="line"/>
      <point x="351" y="724" type="line"/>
      <point x="351" y="637" type="line"/>
      <point x="161" y="632"/>
      <point x="50" y="545"/>
      <point x="50" y="372" type="curve" smooth="yes"/>
      <point x="50" y="183"/>
      <point x="176" y="102"/>
      <point x="351" y="99" type="curve"/>
      <point x="351" y="-10" type="line"/>
      <point x="377" y="-10" type="line"/>
      <point x="377" y="99" type="line"/>
      <point x="552" y="102"/>
      <point x="678" y="189"/>
      <point x="678" y="378" type="curve" smooth="yes"/>
      <point x="678" y="564"/>
      <point x="555" y="634"/>
      <point x="377" y="637" type="curve"/>
    </contour>
    <contour>
      <point x="351" y="612" type="curve"/>
      <point x="351" y="124" type="line"/>
      <point x="182" y="127"/>
      <point x="77" y="202"/>
      <point x="77" y="372" type="curve" smooth="yes"/>
      <point x="77" y="535"/>
      <point x="180" y="609"/>
    </contour>
    <contour>
      <point x="377" y="612" type="line"/>
      <point x="554" y="609"/>
      <point x="651" y="543"/>
      <point x="651" y="378" type="curve" smooth="yes"/>
      <point x="651" y="205"/>
      <point x="544" y="127"/>
      <point x="377" y="124" type="curve"/>
    </contour>
  </outline>
</glyph>
<glyph name="uni0554" format="2">
  <advance width="569"/>
  <unicode hex="0554"/>
  <note>
uni0554
</note>
  <outline>
    <contour>
      <point x="92" y="0" type="line"/>
      <point x="118" y="0" type="line"/>
      <point x="118" y="360" type="line"/>
      <point x="239" y="360" type="line" smooth="yes"/>
      <point x="413" y="360"/>
      <point x="506" y="425"/>
      <point x="506" y="549" type="curve" smooth="yes"/>
      <point x="506" y="660"/>
      <point x="427" y="724"/>
      <point x="313" y="724" type="curve" smooth="yes"/>
      <point x="157" y="724"/>
      <point x="92" y="627"/>
      <point x="92" y="389" type="curve" smooth="yes"/>
    </contour>
    <contour>
      <point x="118" y="385" type="line"/>
      <point x="118" y="611"/>
      <point x="178" y="699"/>
      <point x="310" y="699" type="curve" smooth="yes"/>
      <point x="406" y="699"/>
      <point x="479" y="641"/>
      <point x="479" y="550" type="curve" smooth="yes"/>
      <point x="479" y="440"/>
      <point x="396" y="385"/>
      <point x="236" y="385" type="curve" smooth="yes"/>
    </contour>
    <contour>
      <point x="12" y="278" type="line"/>
      <point x="12" y="253" type="line"/>
      <point x="512" y="253" type="line"/>
      <point x="512" y="278" type="line"/>
    </contour>
  </outline>
</glyph>
<glyph name="uni0555" format="2">
  <advance width="749"/>
  <unicode hex="0555"/>
  <note>
uni0555
</note>
  <anchor x="374" y="714" name="top"/>
  <outline>
    <contour>
      <point x="688" y="358" type="curve" smooth="yes"/>
      <point x="688" y="590"/>
      <point x="577" y="724"/>
      <point x="380" y="724" type="curve" smooth="yes"/>
      <point x="175" y="724"/>
      <point x="61" y="574"/>
      <point x="61" y="359" type="curve" smooth="yes"/>
      <point x="61" y="143"/>
      <point x="166" y="-10"/>
      <point x="374" y="-10" type="curve" smooth="yes"/>
      <point x="585" y="-10"/>
      <point x="688" y="143"/>
    </contour>
    <contour>
      <point x="88" y="359" type="curve" smooth="yes"/>
      <point x="88" y="556"/>
      <point x="184" y="699"/>
      <point x="380" y="699" type="curve" smooth="yes"/>
      <point x="560" y="699"/>
      <point x="661" y="575"/>
      <point x="661" y="358" type="curve" smooth="yes"/>
      <point x="661" y="156"/>
      <point x="571" y="15"/>
      <point x="375" y="15" type="curve" smooth="yes"/>
      <point x="180" y="15"/>
      <point x="88" y="159"/>
    </contour>
  </outline>
</glyph>
<glyph name="uni0556" format="2">
  <advance width="593"/>
  <unicode hex="0556"/>
  <note>
uni0556
</note>
  <outline>
    <contour>
      <point x="281" y="-10" type="curve" smooth="yes"/>
      <point x="454" y="-10"/>
      <point x="540" y="80"/>
      <point x="540" y="212" type="curve" smooth="yes"/>
      <point x="540" y="325"/>
      <point x="467" y="382"/>
      <point x="292" y="406" type="curve"/>
      <point x="292" y="714" type="line"/>
      <point x="233" y="714" type="line" smooth="yes"/>
      <point x="133" y="714"/>
      <point x="69" y="652"/>
      <point x="69" y="564" type="curve" smooth="yes"/>
      <point x="69" y="456"/>
      <point x="135" y="405"/>
      <point x="266" y="386" type="curve"/>
      <point x="266" y="15" type="line"/>
      <point x="198" y="17"/>
      <point x="121" y="28"/>
      <point x="52" y="50" type="curve"/>
      <point x="52" y="24" type="line"/>
      <point x="121" y="4"/>
      <point x="183" y="-10"/>
    </contour>
    <contour>
      <point x="292" y="15" type="curve"/>
      <point x="292" y="381" type="line"/>
      <point x="435" y="358"/>
      <point x="513" y="318"/>
      <point x="513" y="212" type="curve" smooth="yes"/>
      <point x="513" y="103"/>
      <point x="442" y="17"/>
    </contour>
    <contour>
      <point x="266" y="411" type="line"/>
      <point x="154" y="427"/>
      <point x="96" y="472"/>
      <point x="96" y="564" type="curve" smooth="yes"/>
      <point x="96" y="636"/>
      <point x="146" y="689"/>
      <point x="234" y="689" type="curve" smooth="yes"/>
      <point x="266" y="689" type="line"/>
    </contour>
  </outline>
</glyph>
<glyph name="uni0559" format="2">
  <advance width="169"/>
  <unicode hex="0559"/>
  <note>
uni0559
</note>
  <outline>
    <contour>
      <point x="132" y="443" type="curve"/>
      <point x="132" y="468" type="line"/>
      <point x="82" y="468"/>
      <point x="47" y="516"/>
      <point x="47" y="583" type="curve" smooth="yes"/>
      <point x="47" y="666"/>
      <point x="79" y="710"/>
      <point x="132" y="744" type="curve"/>
      <point x="118" y="760" type="line"/>
      <point x="64" y="729"/>
      <point x="21" y="684"/>
      <point x="21" y="583" type="curve" smooth="yes"/>
      <point x="21" y="500"/>
      <point x="65" y="443"/>
    </contour>
  </outline>
</glyph>
<glyph name="uni055A" format="2">
  <advance width="169"/>
  <unicode hex="055A"/>
  <note>
uni055A
</note>
  <outline>
    <contour>
      <point x="37" y="760" type="curve"/>
      <point x="37" y="735" type="line"/>
      <point x="87" y="735"/>
      <point x="122" y="687"/>
      <point x="122" y="620" type="curve" smooth="yes"/>
      <point x="122" y="537"/>
      <point x="90" y="493"/>
      <point x="37" y="459" type="curve"/>
      <point x="51" y="443" type="line"/>
      <point x="105" y="474"/>
      <point x="148" y="519"/>
      <point x="148" y="620" type="curve" smooth="yes"/>
      <point x="148" y="703"/>
      <point x="104" y="760"/>
    </contour>
  </outline>
</glyph>
<glyph name="uni055B" format="2">
  <advance width="165"/>
  <unicode hex="055B"/>
  <note>
uni055B
</note>
  <outline>
    <contour>
      <point x="117" y="814" type="line"/>
      <point x="97" y="814" type="line"/>
      <point x="90" y="742"/>
      <point x="65" y="639"/>
      <point x="34" y="569" type="curve"/>
      <point x="56" y="569" type="line"/>
      <point x="88" y="638"/>
      <point x="111" y="723"/>
      <point x="123" y="805" type="curve"/>
    </contour>
  </outline>
</glyph>
<glyph name="uni055C" format="2">
  <advance width="239"/>
  <unicode hex="055C"/>
  <note>
uni055C
</note>
  <outline>
    <contour>
      <point x="43" y="603" type="curve"/>
      <point x="68" y="603" type="line"/>
      <point x="68" y="615" type="line" smooth="yes"/>
      <point x="68" y="645"/>
      <point x="79" y="665"/>
      <point x="124" y="693" type="curve" smooth="yes"/>
      <point x="179" y="727"/>
      <point x="197" y="740"/>
      <point x="197" y="814" type="curve"/>
      <point x="172" y="814" type="line"/>
      <point x="172" y="799" type="line" smooth="yes"/>
      <point x="172" y="759"/>
      <point x="154" y="737"/>
      <point x="112" y="712" type="curve" smooth="yes"/>
      <point x="63" y="683"/>
      <point x="43" y="662"/>
    </contour>
  </outline>
</glyph>
<glyph name="uni055D" format="2">
  <advance width="165"/>
  <unicode hex="055D"/>
  <note>
uni055D
</note>
  <outline>
    <contour>
      <point x="48" y="814" type="line"/>
      <point x="42" y="805" type="line"/>
      <point x="54" y="720"/>
      <point x="72" y="649"/>
      <point x="109" y="569" type="curve"/>
      <point x="131" y="569" type="line"/>
      <point x="95" y="651"/>
      <point x="77" y="724"/>
      <point x="68" y="814" type="curve"/>
    </contour>
  </outline>
</glyph>
<glyph name="uni055E" format="2">
  <advance width="418"/>
  <unicode hex="055E"/>
  <note>
uni055E
</note>
  <outline>
    <contour>
      <point x="61" y="684" type="curve"/>
      <point x="86" y="684" type="line"/>
      <point x="92" y="756"/>
      <point x="157" y="797"/>
      <point x="246" y="797" type="curve" smooth="yes"/>
      <point x="299" y="797"/>
      <point x="333" y="781"/>
      <point x="333" y="748" type="curve" smooth="yes"/>
      <point x="333" y="715"/>
      <point x="298" y="706"/>
      <point x="231" y="703" type="curve"/>
      <point x="231" y="678" type="line"/>
      <point x="317" y="680"/>
      <point x="360" y="701"/>
      <point x="360" y="750" type="curve" smooth="yes"/>
      <point x="360" y="793"/>
      <point x="321" y="822"/>
      <point x="246" y="822" type="curve" smooth="yes"/>
      <point x="143" y="822"/>
      <point x="70" y="769"/>
    </contour>
  </outline>
</glyph>
<glyph name="uni055F" format="2">
  <advance width="405"/>
  <unicode hex="055F"/>
  <note>
uni055F
</note>
  <outline>
    <contour>
      <point x="154" y="614" type="curve" smooth="yes"/>
      <point x="379" y="614" type="line"/>
      <point x="379" y="639" type="line"/>
      <point x="163" y="639" type="line" smooth="yes"/>
      <point x="104" y="639"/>
      <point x="74" y="662"/>
      <point x="74" y="708" type="curve" smooth="yes"/>
      <point x="74" y="748"/>
      <point x="106" y="772"/>
      <point x="160" y="772" type="curve" smooth="yes"/>
      <point x="176" y="772"/>
      <point x="194" y="768"/>
      <point x="215" y="761" type="curve"/>
      <point x="222" y="784" type="line"/>
      <point x="199" y="793"/>
      <point x="176" y="797"/>
      <point x="156" y="797" type="curve" smooth="yes"/>
      <point x="90" y="797"/>
      <point x="48" y="764"/>
      <point x="48" y="708" type="curve" smooth="yes"/>
      <point x="48" y="648"/>
      <point x="85" y="614"/>
    </contour>
  </outline>
</glyph>
<glyph name="uni0560" format="2">
  <advance width="850"/>
  <unicode hex="0560"/>
  <note>
uni0561
</note>
  <outline>
    <contour>
      <point x="611" y="492" type="curve" smooth="yes"/>
      <point x="519" y="492"/>
      <point x="456" y="446"/>
      <point x="432" y="384" type="curve"/>
      <point x="430" y="384" type="line"/>
      <point x="414" y="455"/>
      <point x="353" y="492"/>
      <point x="284" y="492" type="curve" smooth="yes"/>
      <point x="182" y="492"/>
      <point x="135" y="435"/>
      <point x="114" y="386" type="curve"/>
      <point x="112" y="386" type="line"/>
      <point x="108" y="482" type="line"/>
      <point x="87" y="482" type="line"/>
      <point x="87" y="0" type="line"/>
      <point x="113" y="0" type="line"/>
      <point x="113" y="279" type="line" smooth="yes"/>
      <point x="113" y="413"/>
      <point x="191" y="467"/>
      <point x="284" y="467" type="curve" smooth="yes"/>
      <point x="357" y="467"/>
      <point x="414" y="421"/>
      <point x="414" y="314" type="curve" smooth="yes"/>
      <point x="414" y="0" type="line"/>
      <point x="440" y="0" type="line"/>
      <point x="440" y="279" type="line" smooth="yes"/>
      <point x="440" y="413"/>
      <point x="511" y="467"/>
      <point x="611" y="467" type="curve" smooth="yes"/>
      <point x="684" y="467"/>
      <point x="741" y="421"/>
      <point x="741" y="314" type="curve" smooth="yes"/>
      <point x="741" y="0" type="line"/>
      <point x="767" y="0" type="line"/>
      <point x="767" y="315" type="line" smooth="yes"/>
      <point x="767" y="436"/>
      <point x="701" y="492"/>
    </contour>
  </outline>
</glyph>
<glyph name="uni0561" format="2">
  <advance width="850"/>
  <unicode hex="0561"/>
  <note>
uni0561
</note>
  <anchor x="425" y="492" name="top"/>
  <outline>
    <contour>
      <point x="238" y="-10" type="curve" smooth="yes"/>
      <point x="330" y="-10"/>
      <point x="393" y="36"/>
      <point x="417" y="98" type="curve"/>
      <point x="419" y="98" type="line"/>
      <point x="435" y="27"/>
      <point x="496" y="-10"/>
      <point x="565" y="-10" type="curve" smooth="yes"/>
      <point x="667" y="-10"/>
      <point x="714" y="47"/>
      <point x="735" y="96" type="curve"/>
      <point x="737" y="96" type="line"/>
      <point x="741" y="0" type="line"/>
      <point x="762" y="0" type="line"/>
      <point x="762" y="482" type="line"/>
      <point x="736" y="482" type="line"/>
      <point x="736" y="203" type="line" smooth="yes"/>
      <point x="736" y="69"/>
      <point x="658" y="15"/>
      <point x="565" y="15" type="curve" smooth="yes"/>
      <point x="492" y="15"/>
      <point x="435" y="61"/>
      <point x="435" y="168" type="curve" smooth="yes"/>
      <point x="435" y="482" type="line"/>
      <point x="409" y="482" type="line"/>
      <point x="409" y="203" type="line" smooth="yes"/>
      <point x="409" y="69"/>
      <point x="338" y="15"/>
      <point x="238" y="15" type="curve" smooth="yes"/>
      <point x="165" y="15"/>
      <point x="108" y="61"/>
      <point x="108" y="168" type="curve" smooth="yes"/>
      <point x="108" y="482" type="line"/>
      <point x="82" y="482" type="line"/>
      <point x="82" y="167" type="line" smooth="yes"/>
      <point x="82" y="46"/>
      <point x="148" y="-10"/>
    </contour>
  </outline>
</glyph>
<glyph name="uni0563" format="2">
  <advance width="552"/>
  <unicode hex="0563"/>
  <note>
uni0563
</note>
  <outline>
    <contour>
      <point x="436" y="-232" type="line"/>
      <point x="462" y="-232" type="line"/>
      <point x="462" y="0" type="line"/>
      <point x="547" y="0" type="line"/>
      <point x="547" y="25" type="line"/>
      <point x="462" y="25" type="line"/>
      <point x="462" y="482" type="line"/>
      <point x="440" y="482" type="line"/>
      <point x="436" y="378" type="line"/>
      <point x="434" y="378" type="line"/>
      <point x="411" y="441"/>
      <point x="351" y="492"/>
      <point x="266" y="492" type="curve" smooth="yes"/>
      <point x="120" y="492"/>
      <point x="57" y="383"/>
      <point x="57" y="239" type="curve" smooth="yes"/>
      <point x="57" y="76"/>
      <point x="125" y="-11"/>
      <point x="250" y="-11" type="curve" smooth="yes"/>
      <point x="351" y="-11"/>
      <point x="414" y="39"/>
      <point x="436" y="116" type="curve"/>
      <point x="438" y="116" type="line"/>
      <point x="437" y="83"/>
      <point x="436" y="35"/>
      <point x="436" y="3" type="curve" smooth="yes"/>
    </contour>
    <contour>
      <point x="250" y="14" type="curve" smooth="yes"/>
      <point x="141" y="14"/>
      <point x="84" y="90"/>
      <point x="84" y="239" type="curve" smooth="yes"/>
      <point x="84" y="391"/>
      <point x="149" y="467"/>
      <point x="266" y="467" type="curve" smooth="yes"/>
      <point x="377" y="467"/>
      <point x="436" y="384"/>
      <point x="436" y="252" type="curve" smooth="yes"/>
      <point x="436" y="242" type="line" smooth="yes"/>
      <point x="436" y="86"/>
      <point x="375" y="14"/>
    </contour>
  </outline>
</glyph>
<glyph name="uni0564" format="2">
  <advance width="541"/>
  <unicode hex="0564"/>
  <note>
uni0564
</note>
  <outline>
    <contour>
      <point x="430" y="-232" type="line"/>
      <point x="456" y="-232" type="line"/>
      <point x="456" y="0" type="line"/>
      <point x="535" y="0" type="line"/>
      <point x="535" y="25" type="line"/>
      <point x="456" y="25" type="line"/>
      <point x="456" y="300" type="line" smooth="yes"/>
      <point x="456" y="431"/>
      <point x="390" y="492"/>
      <point x="291" y="492" type="curve" smooth="yes"/>
      <point x="186" y="492"/>
      <point x="137" y="432"/>
      <point x="114" y="371" type="curve"/>
      <point x="112" y="371" type="line"/>
      <point x="108" y="482" type="line"/>
      <point x="87" y="482" type="line"/>
      <point x="87" y="0" type="line"/>
      <point x="113" y="0" type="line"/>
      <point x="113" y="256" type="line" smooth="yes"/>
      <point x="113" y="400"/>
      <point x="183" y="467"/>
      <point x="291" y="467" type="curve" smooth="yes"/>
      <point x="373" y="467"/>
      <point x="430" y="416"/>
      <point x="430" y="299" type="curve" smooth="yes"/>
    </contour>
  </outline>
</glyph>
<glyph name="uni0565" format="2">
  <advance width="542"/>
  <unicode hex="0565"/>
  <note>
uni0565
</note>
  <outline>
    <contour>
      <point x="451" y="332" type="line"/>
      <point x="425" y="332" type="line"/>
      <point x="425" y="226" type="line" smooth="yes"/>
      <point x="425" y="82"/>
      <point x="347" y="15"/>
      <point x="247" y="15" type="curve" smooth="yes"/>
      <point x="165" y="15"/>
      <point x="108" y="66"/>
      <point x="108" y="183" type="curve" smooth="yes"/>
      <point x="108" y="760" type="line"/>
      <point x="82" y="760" type="line"/>
      <point x="82" y="182" type="line" smooth="yes"/>
      <point x="82" y="51"/>
      <point x="148" y="-10"/>
      <point x="247" y="-10" type="curve" smooth="yes"/>
      <point x="344" y="-10"/>
      <point x="401" y="50"/>
      <point x="424" y="111" type="curve"/>
      <point x="426" y="111" type="line"/>
      <point x="430" y="0" type="line"/>
      <point x="451" y="0" type="line"/>
    </contour>
    <contour>
      <point x="96" y="482" type="line"/>
      <point x="96" y="457" type="line"/>
      <point x="474" y="457" type="line"/>
      <point x="474" y="482" type="line"/>
    </contour>
  </outline>
</glyph>
<glyph name="uni0566" format="2">
  <advance width="551"/>
  <unicode hex="0566"/>
  <note>
uni0566
</note>
  <outline>
    <contour>
      <point x="438" y="-232" type="line"/>
      <point x="559" y="-232" type="line"/>
      <point x="559" y="-207" type="line"/>
      <point x="464" y="-207" type="line"/>
      <point x="464" y="482" type="line"/>
      <point x="442" y="482" type="line"/>
      <point x="438" y="378" type="line"/>
      <point x="436" y="378" type="line"/>
      <point x="413" y="441"/>
      <point x="353" y="492"/>
      <point x="268" y="492" type="curve" smooth="yes"/>
      <point x="122" y="492"/>
      <point x="59" y="383"/>
      <point x="59" y="239" type="curve" smooth="yes"/>
      <point x="59" y="76"/>
      <point x="127" y="-11"/>
      <point x="252" y="-11" type="curve" smooth="yes"/>
      <point x="353" y="-11"/>
      <point x="416" y="39"/>
      <point x="438" y="116" type="curve"/>
      <point x="440" y="116" type="line"/>
      <point x="439" y="83"/>
      <point x="438" y="35"/>
      <point x="438" y="3" type="curve" smooth="yes"/>
    </contour>
    <contour>
      <point x="252" y="14" type="curve" smooth="yes"/>
      <point x="143" y="14"/>
      <point x="86" y="90"/>
      <point x="86" y="239" type="curve" smooth="yes"/>
      <point x="86" y="391"/>
      <point x="151" y="467"/>
      <point x="268" y="467" type="curve" smooth="yes"/>
      <point x="379" y="467"/>
      <point x="438" y="384"/>
      <point x="438" y="252" type="curve" smooth="yes"/>
      <point x="438" y="242" type="line" smooth="yes"/>
      <point x="438" y="86"/>
      <point x="377" y="14"/>
    </contour>
  </outline>
</glyph>
<glyph name="uni0567" format="2">
  <advance width="424"/>
  <unicode hex="0567"/>
  <note>
uni0567
</note>
  <outline>
    <contour>
      <point x="87" y="0" type="line"/>
      <point x="113" y="0" type="line"/>
      <point x="113" y="760" type="line"/>
      <point x="87" y="760" type="line"/>
    </contour>
    <contour>
      <point x="100" y="482" type="line"/>
      <point x="100" y="457" type="line"/>
      <point x="367" y="457" type="line"/>
      <point x="367" y="482" type="line"/>
    </contour>
    <contour>
      <point x="87" y="0" type="line"/>
      <point x="295" y="0" type="line" smooth="yes"/>
      <point x="335" y="0"/>
      <point x="359" y="-22"/>
      <point x="359" y="-72" type="curve" smooth="yes"/>
      <point x="359" y="-90" type="line"/>
      <point x="385" y="-90" type="line"/>
      <point x="385" y="-71" type="line" smooth="yes"/>
      <point x="385" y="-6"/>
      <point x="352" y="25"/>
      <point x="295" y="25" type="curve" smooth="yes"/>
      <point x="87" y="25" type="line"/>
    </contour>
  </outline>
</glyph>
<glyph name="uni0568" format="2">
  <advance width="539"/>
  <unicode hex="0568"/>
  <note>
uni0568
</note>
  <outline>
    <contour>
      <point x="87" y="-232" type="line"/>
      <point x="113" y="-232" type="line"/>
      <point x="113" y="256" type="line" smooth="yes"/>
      <point x="113" y="400"/>
      <point x="191" y="467"/>
      <point x="291" y="467" type="curve" smooth="yes"/>
      <point x="373" y="467"/>
      <point x="430" y="416"/>
      <point x="430" y="299" type="curve" smooth="yes"/>
      <point x="430" y="0" type="line"/>
      <point x="456" y="0" type="line"/>
      <point x="456" y="300" type="line" smooth="yes"/>
      <point x="456" y="431"/>
      <point x="390" y="492"/>
      <point x="291" y="492" type="curve" smooth="yes"/>
      <point x="194" y="492"/>
      <point x="137" y="432"/>
      <point x="114" y="371" type="curve"/>
      <point x="112" y="371" type="line"/>
      <point x="108" y="482" type="line"/>
      <point x="87" y="482" type="line"/>
    </contour>
    <contour>
      <point x="95" y="-207" type="line"/>
      <point x="95" y="-232" type="line"/>
      <point x="473" y="-232" type="line"/>
      <point x="473" y="-207" type="line"/>
    </contour>
  </outline>
</glyph>
<glyph name="uni0569" format="2">
  <advance width="560"/>
  <unicode hex="0569"/>
  <note>
uni0569
</note>
  <outline>
    <contour>
      <point x="87" y="-232" type="line"/>
      <point x="113" y="-232" type="line"/>
      <point x="113" y="256" type="line" smooth="yes"/>
      <point x="113" y="400"/>
      <point x="189" y="467"/>
      <point x="289" y="467" type="curve"/>
      <point x="291" y="492" type="line"/>
      <point x="194" y="492"/>
      <point x="137" y="436"/>
      <point x="114" y="375" type="curve"/>
      <point x="112" y="375" type="line"/>
      <point x="108" y="482" type="line"/>
      <point x="87" y="482" type="line"/>
    </contour>
    <contour>
      <point x="551" y="203" type="curve"/>
      <point x="562" y="227" type="line"/>
      <point x="508" y="249"/>
      <point x="443" y="262"/>
      <point x="374" y="262" type="curve" smooth="yes"/>
      <point x="294" y="262"/>
      <point x="232" y="224"/>
      <point x="232" y="125" type="curve" smooth="yes"/>
      <point x="232" y="37"/>
      <point x="273" y="-10"/>
      <point x="350" y="-10" type="curve" smooth="yes"/>
      <point x="439" y="-10"/>
      <point x="484" y="52"/>
      <point x="484" y="247" type="curve" smooth="yes"/>
      <point x="484" y="423"/>
      <point x="398" y="492"/>
      <point x="291" y="492" type="curve"/>
      <point x="289" y="467" type="line"/>
      <point x="381" y="467"/>
      <point x="458" y="411"/>
      <point x="458" y="248" type="curve" smooth="yes"/>
      <point x="458" y="70"/>
      <point x="421" y="15"/>
      <point x="351" y="15" type="curve" smooth="yes"/>
      <point x="288" y="15"/>
      <point x="258" y="53"/>
      <point x="258" y="125" type="curve" smooth="yes"/>
      <point x="258" y="204"/>
      <point x="308" y="237"/>
      <point x="375" y="237" type="curve" smooth="yes"/>
      <point x="442" y="237"/>
      <point x="500" y="224"/>
    </contour>
  </outline>
</glyph>
<glyph name="uni056A" format="2">
  <advance width="528"/>
  <unicode hex="056A"/>
  <note>
uni056A
</note>
  <outline>
    <contour>
      <point x="282" y="467" type="curve" smooth="yes"/>
      <point x="361" y="467"/>
      <point x="448" y="452"/>
      <point x="524" y="431" type="curve"/>
      <point x="531" y="455" type="line"/>
      <point x="453" y="477"/>
      <point x="362" y="492"/>
      <point x="281" y="492" type="curve" smooth="yes"/>
      <point x="129" y="492"/>
      <point x="59" y="398"/>
      <point x="59" y="236" type="curve" smooth="yes"/>
      <point x="59" y="70"/>
      <point x="121" y="-15"/>
      <point x="251" y="-15" type="curve" smooth="yes"/>
      <point x="382" y="-15"/>
      <point x="445" y="74"/>
      <point x="445" y="239" type="curve" smooth="yes"/>
      <point x="445" y="760" type="line"/>
      <point x="419" y="760" type="line"/>
      <point x="419" y="242" type="line" smooth="yes"/>
      <point x="419" y="93"/>
      <point x="368" y="10"/>
      <point x="251" y="10" type="curve" smooth="yes"/>
      <point x="137" y="10"/>
      <point x="86" y="89"/>
      <point x="86" y="234" type="curve" smooth="yes"/>
      <point x="86" y="385"/>
      <point x="147" y="467"/>
    </contour>
  </outline>
</glyph>
<glyph name="uni056B" format="2">
  <advance width="539"/>
  <unicode hex="056B"/>
  <note>
uni056B
</note>
  <outline>
    <contour>
      <point x="113" y="760" type="line"/>
      <point x="87" y="760" type="line"/>
      <point x="87" y="-232" type="line"/>
      <point x="113" y="-232" type="line"/>
      <point x="113" y="256" type="line" smooth="yes"/>
      <point x="113" y="400"/>
      <point x="186" y="467"/>
      <point x="291" y="467" type="curve" smooth="yes"/>
      <point x="378" y="467"/>
      <point x="430" y="416"/>
      <point x="430" y="299" type="curve" smooth="yes"/>
      <point x="430" y="0" type="line"/>
      <point x="456" y="0" type="line"/>
      <point x="456" y="300" type="line" smooth="yes"/>
      <point x="456" y="431"/>
      <point x="395" y="492"/>
      <point x="291" y="492" type="curve" smooth="yes"/>
      <point x="189" y="492"/>
      <point x="134" y="434"/>
      <point x="113" y="371" type="curve"/>
      <point x="111" y="371" type="line"/>
      <point x="112" y="400"/>
      <point x="113" y="420"/>
      <point x="113" y="450" type="curve" smooth="yes"/>
    </contour>
  </outline>
</glyph>
<glyph name="uni056C" format="2">
  <advance width="200"/>
  <unicode hex="056C"/>
  <note>
uni056C
</note>
  <outline>
    <contour>
      <point x="87" y="-232" type="line"/>
      <point x="208" y="-232" type="line"/>
      <point x="208" y="-207" type="line"/>
      <point x="113" y="-207" type="line"/>
      <point x="113" y="484" type="line"/>
      <point x="87" y="484" type="line"/>
    </contour>
  </outline>
</glyph>
<glyph name="uni056D" format="2">
  <advance width="844"/>
  <unicode hex="056D"/>
  <note>
uni056D
</note>
  <outline>
    <contour>
      <point x="730" y="482" type="line"/>
      <point x="730" y="226" type="line" smooth="yes"/>
      <point x="730" y="82"/>
      <point x="658" y="15"/>
      <point x="559" y="15" type="curve" smooth="yes"/>
      <point x="482" y="15"/>
      <point x="427" y="66"/>
      <point x="427" y="183" type="curve" smooth="yes"/>
      <point x="427" y="300" type="line" smooth="yes"/>
      <point x="427" y="431"/>
      <point x="369" y="492"/>
      <point x="273" y="492" type="curve" smooth="yes"/>
      <point x="177" y="492"/>
      <point x="131" y="434"/>
      <point x="113" y="371" type="curve"/>
      <point x="111" y="371" type="line"/>
      <point x="112" y="400"/>
      <point x="113" y="420"/>
      <point x="113" y="450" type="curve" smooth="yes"/>
      <point x="113" y="760" type="line"/>
      <point x="87" y="760" type="line"/>
      <point x="87" y="-232" type="line"/>
      <point x="113" y="-232" type="line"/>
      <point x="113" y="256" type="line" smooth="yes"/>
      <point x="113" y="400"/>
      <point x="173" y="467"/>
      <point x="271" y="467" type="curve" smooth="yes"/>
      <point x="351" y="467"/>
      <point x="401" y="416"/>
      <point x="401" y="299" type="curve" smooth="yes"/>
      <point x="401" y="182" type="line" smooth="yes"/>
      <point x="401" y="51"/>
      <point x="465" y="-10"/>
      <point x="559" y="-10" type="curve" smooth="yes"/>
      <point x="655" y="-10"/>
      <point x="705" y="50"/>
      <point x="729" y="111" type="curve"/>
      <point x="731" y="111" type="line"/>
      <point x="735" y="0" type="line"/>
      <point x="756" y="0" type="line"/>
      <point x="756" y="482" type="line"/>
    </contour>
  </outline>
</glyph>
<glyph name="uni056E" format="2">
  <advance width="540"/>
  <unicode hex="056E"/>
  <note>
uni056E
</note>
  <outline>
    <contour>
      <point x="345" y="467" type="curve" smooth="yes"/>
      <point x="524" y="467" type="line"/>
      <point x="524" y="492" type="line"/>
      <point x="343" y="492" type="line" smooth="yes"/>
      <point x="129" y="492"/>
      <point x="59" y="378"/>
      <point x="59" y="236" type="curve" smooth="yes"/>
      <point x="59" y="90"/>
      <point x="121" y="-15"/>
      <point x="264" y="-15" type="curve" smooth="yes"/>
      <point x="388" y="-15"/>
      <point x="474" y="46"/>
      <point x="474" y="243" type="curve" smooth="yes"/>
      <point x="474" y="372"/>
      <point x="421" y="475"/>
      <point x="198" y="695" type="curve"/>
      <point x="179" y="679" type="line"/>
      <point x="399" y="459"/>
      <point x="448" y="367"/>
      <point x="448" y="243" type="curve" smooth="yes"/>
      <point x="448" y="60"/>
      <point x="369" y="10"/>
      <point x="264" y="10" type="curve" smooth="yes"/>
      <point x="137" y="10"/>
      <point x="86" y="109"/>
      <point x="86" y="234" type="curve" smooth="yes"/>
      <point x="86" y="365"/>
      <point x="142" y="467"/>
    </contour>
    <contour>
      <point x="179" y="679" type="line"/>
      <point x="197" y="662" type="line"/>
      <point x="283" y="752" type="line"/>
      <point x="265" y="769" type="line"/>
    </contour>
  </outline>
</glyph>
<glyph name="uni056F" format="2">
  <advance width="539"/>
  <unicode hex="056F"/>
  <note>
uni056F
</note>
  <outline>
    <contour>
      <point x="451" y="-232" type="line"/>
      <point x="451" y="482" type="line"/>
      <point x="425" y="482" type="line"/>
      <point x="425" y="226" type="line" smooth="yes"/>
      <point x="425" y="82"/>
      <point x="347" y="15"/>
      <point x="247" y="15" type="curve" smooth="yes"/>
      <point x="165" y="15"/>
      <point x="108" y="66"/>
      <point x="108" y="183" type="curve" smooth="yes"/>
      <point x="108" y="760" type="line"/>
      <point x="82" y="760" type="line"/>
      <point x="82" y="182" type="line" smooth="yes"/>
      <point x="82" y="51"/>
      <point x="148" y="-10"/>
      <point x="247" y="-10" type="curve" smooth="yes"/>
      <point x="344" y="-10"/>
      <point x="401" y="50"/>
      <point x="424" y="111" type="curve"/>
      <point x="427" y="111" type="line"/>
      <point x="425" y="73"/>
      <point x="425" y="40"/>
      <point x="425" y="0" type="curve" smooth="yes"/>
      <point x="425" y="-232" type="line"/>
    </contour>
  </outline>
</glyph>
<glyph name="uni0570" format="2">
  <advance width="496"/>
  <unicode hex="0570"/>
  <note>
uni0570
</note>
  <outline>
    <contour>
      <point x="403" y="0" type="line"/>
      <point x="429" y="0" type="line"/>
      <point x="429" y="199" type="line" smooth="yes"/>
      <point x="429" y="298"/>
      <point x="370" y="365"/>
      <point x="265" y="365" type="curve" smooth="yes"/>
      <point x="176" y="365"/>
      <point x="127" y="330"/>
      <point x="92" y="281" type="curve"/>
      <point x="88" y="281" type="line"/>
      <point x="88" y="557"/>
      <point x="192" y="751"/>
      <point x="311" y="751" type="curve" smooth="yes"/>
      <point x="356" y="751"/>
      <point x="388" y="736"/>
      <point x="418" y="710" type="curve"/>
      <point x="435" y="729" type="line"/>
      <point x="403" y="758"/>
      <point x="367" y="776"/>
      <point x="311" y="776" type="curve" smooth="yes"/>
      <point x="177" y="776"/>
      <point x="62" y="579"/>
      <point x="62" y="282" type="curve" smooth="yes"/>
      <point x="62" y="216" type="line"/>
      <point x="79" y="211" type="line"/>
      <point x="105" y="294"/>
      <point x="170" y="340"/>
      <point x="256" y="340" type="curve" smooth="yes"/>
      <point x="353" y="340"/>
      <point x="403" y="286"/>
      <point x="403" y="191" type="curve" smooth="yes"/>
    </contour>
  </outline>
</glyph>
<glyph name="uni0571" format="2">
  <advance width="512"/>
  <unicode hex="0571"/>
  <note>
uni0571
</note>
  <outline>
    <contour>
      <point x="155" y="761" type="curve"/>
      <point x="129" y="761" type="line"/>
      <point x="130" y="676"/>
      <point x="154" y="658"/>
      <point x="315" y="634" type="curve" smooth="yes"/>
      <point x="409" y="620"/>
      <point x="438" y="611"/>
      <point x="438" y="588" type="curve" smooth="yes"/>
      <point x="438" y="572"/>
      <point x="419" y="553"/>
      <point x="282" y="469" type="curve" smooth="yes"/>
      <point x="105" y="360"/>
      <point x="49" y="274"/>
      <point x="49" y="173" type="curve" smooth="yes"/>
      <point x="49" y="54"/>
      <point x="102" y="-10"/>
      <point x="222" y="-10" type="curve" smooth="yes"/>
      <point x="296" y="-10"/>
      <point x="358" y="20"/>
      <point x="407" y="66" type="curve"/>
      <point x="410" y="66" type="line"/>
      <point x="410" y="95" type="line"/>
      <point x="361" y="45"/>
      <point x="283" y="15"/>
      <point x="222" y="15" type="curve" smooth="yes"/>
      <point x="120" y="15"/>
      <point x="76" y="71"/>
      <point x="76" y="173" type="curve" smooth="yes"/>
      <point x="76" y="262"/>
      <point x="124" y="344"/>
      <point x="296" y="450" type="curve" smooth="yes"/>
      <point x="440" y="539"/>
      <point x="464" y="560"/>
      <point x="464" y="588" type="curve" smooth="yes"/>
      <point x="464" y="628"/>
      <point x="424" y="643"/>
      <point x="319" y="658" type="curve" smooth="yes"/>
      <point x="177" y="678"/>
      <point x="155" y="690"/>
    </contour>
    <contour>
      <point x="326" y="487" type="line"/>
      <point x="423" y="0" type="line"/>
      <point x="448" y="5" type="line"/>
      <point x="351" y="492" type="line"/>
    </contour>
    <contour>
      <point x="423" y="0" type="line"/>
      <point x="492" y="0" type="line"/>
      <point x="492" y="25" type="line"/>
      <point x="443" y="25" type="line"/>
    </contour>
  </outline>
</glyph>
<glyph name="uni0572" format="2">
  <advance width="542"/>
  <unicode hex="0572"/>
  <note>
uni0572
</note>
  <outline>
    <contour>
      <point x="430" y="-232" type="line"/>
      <point x="551" y="-232" type="line"/>
      <point x="551" y="-207" type="line"/>
      <point x="456" y="-207" type="line"/>
      <point x="456" y="300" type="line" smooth="yes"/>
      <point x="456" y="431"/>
      <point x="390" y="492"/>
      <point x="286" y="492" type="curve" smooth="yes"/>
      <point x="179" y="492"/>
      <point x="137" y="432"/>
      <point x="114" y="371" type="curve"/>
      <point x="112" y="371" type="line"/>
      <point x="108" y="482" type="line"/>
      <point x="87" y="482" type="line"/>
      <point x="87" y="0" type="line"/>
      <point x="113" y="0" type="line"/>
      <point x="113" y="256" type="line" smooth="yes"/>
      <point x="113" y="400"/>
      <point x="181" y="467"/>
      <point x="286" y="467" type="curve" smooth="yes"/>
      <point x="373" y="467"/>
      <point x="430" y="416"/>
      <point x="430" y="299" type="curve" smooth="yes"/>
    </contour>
  </outline>
</glyph>
<glyph name="uni0573" format="2">
  <advance width="521"/>
  <unicode hex="0573"/>
  <note>
uni0573
</note>
  <outline>
    <contour>
      <point x="449" y="207" type="line" smooth="yes"/>
      <point x="449" y="388"/>
      <point x="362" y="482"/>
      <point x="44" y="501" type="curve"/>
      <point x="42" y="475" type="line"/>
      <point x="340" y="457"/>
      <point x="423" y="376"/>
      <point x="423" y="206" type="curve" smooth="yes"/>
      <point x="423" y="80"/>
      <point x="347" y="15"/>
      <point x="255" y="15" type="curve" smooth="yes"/>
      <point x="148" y="15"/>
      <point x="96" y="78"/>
      <point x="96" y="238" type="curve" smooth="yes"/>
      <point x="96" y="538"/>
      <point x="219" y="751"/>
      <point x="349" y="751" type="curve" smooth="yes"/>
      <point x="394" y="751"/>
      <point x="427" y="737"/>
      <point x="457" y="711" type="curve"/>
      <point x="473" y="729" type="line"/>
      <point x="441" y="758"/>
      <point x="405" y="776"/>
      <point x="349" y="776" type="curve" smooth="yes"/>
      <point x="200" y="776"/>
      <point x="70" y="564"/>
      <point x="70" y="238" type="curve" smooth="yes"/>
      <point x="70" y="64"/>
      <point x="129" y="-10"/>
      <point x="255" y="-10" type="curve" smooth="yes"/>
      <point x="342" y="-10"/>
      <point x="394" y="37"/>
      <point x="422" y="91" type="curve"/>
      <point x="424" y="91" type="line"/>
      <point x="428" y="0" type="line"/>
      <point x="449" y="0" type="line"/>
    </contour>
  </outline>
</glyph>
<glyph name="uni0574" format="2">
  <advance width="539"/>
  <unicode hex="0574"/>
  <note>
uni0574
</note>
  <outline>
    <contour>
      <point x="451" y="437" type="line"/>
      <point x="451" y="488"/>
      <point x="426" y="531"/>
      <point x="378" y="580" type="curve" smooth="yes"/>
      <point x="307" y="653"/>
      <point x="304" y="660"/>
      <point x="304" y="692" type="curve" smooth="yes"/>
      <point x="304" y="725"/>
      <point x="324" y="750"/>
      <point x="367" y="750" type="curve" smooth="yes"/>
      <point x="416" y="750"/>
      <point x="429" y="714"/>
      <point x="429" y="669" type="curve"/>
      <point x="455" y="669" type="line"/>
      <point x="455" y="737"/>
      <point x="427" y="775"/>
      <point x="368" y="775" type="curve" smooth="yes"/>
      <point x="312" y="775"/>
      <point x="278" y="741"/>
      <point x="278" y="691" type="curve" smooth="yes"/>
      <point x="278" y="647"/>
      <point x="298" y="624"/>
      <point x="360" y="563" type="curve" smooth="yes"/>
      <point x="404" y="520"/>
      <point x="425" y="476"/>
      <point x="425" y="432" type="curve" smooth="yes"/>
      <point x="425" y="226" type="line" smooth="yes"/>
      <point x="425" y="79"/>
      <point x="347" y="15"/>
      <point x="247" y="15" type="curve" smooth="yes"/>
      <point x="165" y="15"/>
      <point x="108" y="66"/>
      <point x="108" y="183" type="curve" smooth="yes"/>
      <point x="108" y="482" type="line"/>
      <point x="82" y="482" type="line"/>
      <point x="82" y="182" type="line" smooth="yes"/>
      <point x="82" y="51"/>
      <point x="148" y="-10"/>
      <point x="247" y="-10" type="curve" smooth="yes"/>
      <point x="344" y="-10"/>
      <point x="401" y="50"/>
      <point x="424" y="111" type="curve"/>
      <point x="426" y="111" type="line"/>
      <point x="430" y="0" type="line"/>
      <point x="451" y="0" type="line"/>
    </contour>
  </outline>
</glyph>
<glyph name="uni0575" format="2">
  <advance width="198"/>
  <unicode hex="0575"/>
  <note>
uni0575
</note>
  <outline>
    <contour>
      <point x="84" y="106" type="line"/>
      <point x="110" y="106" type="line"/>
      <point x="110" y="482" type="line"/>
      <point x="84" y="482" type="line"/>
    </contour>
    <contour>
      <point x="84" y="106" type="line"/>
      <point x="84" y="56"/>
      <point x="91" y="18"/>
      <point x="104" y="-16" type="curve" smooth="yes"/>
      <point x="117" y="-50"/>
      <point x="124" y="-85"/>
      <point x="124" y="-118" type="curve" smooth="yes"/>
      <point x="124" y="-168"/>
      <point x="95" y="-207"/>
      <point x="48" y="-207" type="curve" smooth="yes"/>
      <point x="43" y="-207" type="line"/>
      <point x="43" y="-232" type="line"/>
      <point x="48" y="-232" type="line" smooth="yes"/>
      <point x="111" y="-232"/>
      <point x="151" y="-180"/>
      <point x="151" y="-118" type="curve" smooth="yes"/>
      <point x="151" y="-82"/>
      <point x="144" y="-44"/>
      <point x="130" y="-12" type="curve" smooth="yes"/>
      <point x="116" y="20"/>
      <point x="110" y="58"/>
      <point x="110" y="106" type="curve"/>
    </contour>
  </outline>
</glyph>
<glyph name="uni0576" format="2">
  <advance width="542"/>
  <unicode hex="0576"/>
  <note>
uni0576
</note>
  <outline>
    <contour>
      <point x="226" y="530" type="line"/>
      <point x="81" y="340"/>
      <point x="62" y="269"/>
      <point x="62" y="185" type="curve" smooth="yes"/>
      <point x="62" y="56"/>
      <point x="129" y="-10"/>
      <point x="250" y="-10" type="curve" smooth="yes"/>
      <point x="347" y="-10"/>
      <point x="404" y="50"/>
      <point x="427" y="111" type="curve"/>
      <point x="429" y="111" type="line"/>
      <point x="433" y="0" type="line"/>
      <point x="454" y="0" type="line"/>
      <point x="454" y="482" type="line"/>
      <point x="428" y="482" type="line"/>
      <point x="428" y="226" type="line" smooth="yes"/>
      <point x="428" y="82"/>
      <point x="350" y="15"/>
      <point x="250" y="15" type="curve" smooth="yes"/>
      <point x="148" y="15"/>
      <point x="89" y="70"/>
      <point x="89" y="185" type="curve" smooth="yes"/>
      <point x="89" y="279"/>
      <point x="117" y="343"/>
      <point x="257" y="530" type="curve"/>
      <point x="257" y="541" type="line"/>
    </contour>
    <contour>
      <point x="257" y="541" type="line"/>
      <point x="148" y="609" type="line" smooth="yes"/>
      <point x="118" y="628"/>
      <point x="103" y="646"/>
      <point x="103" y="667" type="curve" smooth="yes"/>
      <point x="103" y="679"/>
      <point x="108" y="692"/>
      <point x="119" y="707" type="curve" smooth="yes"/>
      <point x="147" y="746" type="line"/>
      <point x="125" y="760" type="line"/>
      <point x="97" y="719" type="line" smooth="yes"/>
      <point x="83" y="699"/>
      <point x="77" y="681"/>
      <point x="77" y="665" type="curve" smooth="yes"/>
      <point x="77" y="637"/>
      <point x="96" y="613"/>
      <point x="135" y="588" type="curve" smooth="yes"/>
      <point x="226" y="530" type="line"/>
    </contour>
  </outline>
</glyph>
<glyph name="uni0577" format="2">
  <advance width="368"/>
  <unicode hex="0577"/>
  <note>
uni0577
</note>
  <outline>
    <contour>
      <point x="325" y="-232" type="line"/>
      <point x="325" y="-207" type="line"/>
      <point x="79" y="-207" type="line" smooth="yes"/>
      <point x="51" y="-207"/>
      <point x="44" y="-199"/>
      <point x="44" y="-182" type="curve" smooth="yes"/>
      <point x="44" y="-167"/>
      <point x="52" y="-152"/>
      <point x="79" y="-119" type="curve" smooth="yes"/>
      <point x="197" y="29" type="line" smooth="yes"/>
      <point x="284" y="139"/>
      <point x="332" y="232"/>
      <point x="332" y="332" type="curve" smooth="yes"/>
      <point x="332" y="422"/>
      <point x="275" y="492"/>
      <point x="172" y="492" type="curve" smooth="yes"/>
      <point x="110" y="492"/>
      <point x="67" y="479"/>
      <point x="15" y="452" type="curve"/>
      <point x="26" y="430" type="line"/>
      <point x="78" y="458"/>
      <point x="116" y="467"/>
      <point x="172" y="467" type="curve" smooth="yes"/>
      <point x="255" y="467"/>
      <point x="305" y="414"/>
      <point x="305" y="332" type="curve" smooth="yes"/>
      <point x="305" y="241"/>
      <point x="267" y="154"/>
      <point x="178" y="43" type="curve" smooth="yes"/>
      <point x="60" y="-105" type="line" smooth="yes"/>
      <point x="29" y="-144"/>
      <point x="19" y="-165"/>
      <point x="19" y="-185" type="curve" smooth="yes"/>
      <point x="19" y="-214"/>
      <point x="34" y="-232"/>
      <point x="82" y="-232" type="curve" smooth="yes"/>
    </contour>
  </outline>
</glyph>
<glyph name="uni0578" format="2">
  <advance width="539"/>
  <unicode hex="0578"/>
  <note>
uni0578
</note>
  <anchor x="269" y="492" name="top"/>
  <outline>
    <contour>
      <point x="87" y="0" type="line"/>
      <point x="113" y="0" type="line"/>
      <point x="113" y="256" type="line" smooth="yes"/>
      <point x="113" y="400"/>
      <point x="191" y="467"/>
      <point x="291" y="467" type="curve" smooth="yes"/>
      <point x="373" y="467"/>
      <point x="430" y="416"/>
      <point x="430" y="299" type="curve" smooth="yes"/>
      <point x="430" y="0" type="line"/>
      <point x="456" y="0" type="line"/>
      <point x="456" y="300" type="line" smooth="yes"/>
      <point x="456" y="431"/>
      <point x="390" y="492"/>
      <point x="291" y="492" type="curve" smooth="yes"/>
      <point x="194" y="492"/>
      <point x="137" y="432"/>
      <point x="114" y="371" type="curve"/>
      <point x="112" y="371" type="line"/>
      <point x="108" y="482" type="line"/>
      <point x="87" y="482" type="line"/>
    </contour>
  </outline>
</glyph>
<glyph name="uni0579" format="2">
  <advance width="298"/>
  <unicode hex="0579"/>
  <note>
uni0579
</note>
  <outline>
    <contour>
      <point x="-24" y="-185" type="curve" smooth="yes"/>
      <point x="-24" y="-214"/>
      <point x="-9" y="-232"/>
      <point x="39" y="-232" type="curve" smooth="yes"/>
      <point x="262" y="-232" type="line"/>
      <point x="262" y="-207" type="line"/>
      <point x="36" y="-207" type="line" smooth="yes"/>
      <point x="8" y="-207"/>
      <point x="1" y="-199"/>
      <point x="1" y="-182" type="curve" smooth="yes"/>
      <point x="1" y="-167"/>
      <point x="12" y="-143"/>
      <point x="36" y="-104" type="curve" smooth="yes"/>
      <point x="255" y="252" type="line"/>
      <point x="235" y="264" type="line"/>
      <point x="16" y="-91" type="line" smooth="yes"/>
      <point x="-9" y="-132"/>
      <point x="-24" y="-165"/>
    </contour>
    <contour>
      <point x="255" y="252" type="line"/>
      <point x="147" y="319" type="line" smooth="yes"/>
      <point x="115" y="339"/>
      <point x="93" y="362"/>
      <point x="93" y="400" type="curve" smooth="yes"/>
      <point x="93" y="420"/>
      <point x="103" y="455"/>
      <point x="121" y="482" type="curve"/>
      <point x="94" y="482" type="line"/>
      <point x="77" y="454"/>
      <point x="67" y="418"/>
      <point x="67" y="397" type="curve" smooth="yes"/>
      <point x="67" y="358"/>
      <point x="85" y="331"/>
      <point x="134" y="300" type="curve" smooth="yes"/>
      <point x="240" y="233" type="line"/>
    </contour>
  </outline>
</glyph>
<glyph name="uni057A" format="2">
  <advance width="850"/>
  <unicode hex="057A"/>
  <note>
uni057A
</note>
  <outline>
    <contour>
      <point x="736" y="-232" type="line"/>
      <point x="762" y="-232" type="line"/>
      <point x="762" y="482" type="line"/>
      <point x="736" y="482" type="line"/>
      <point x="736" y="203" type="line" smooth="yes"/>
      <point x="736" y="69"/>
      <point x="658" y="15"/>
      <point x="565" y="15" type="curve" smooth="yes"/>
      <point x="492" y="15"/>
      <point x="435" y="61"/>
      <point x="435" y="168" type="curve" smooth="yes"/>
      <point x="435" y="482" type="line"/>
      <point x="409" y="482" type="line"/>
      <point x="409" y="203" type="line" smooth="yes"/>
      <point x="409" y="69"/>
      <point x="338" y="15"/>
      <point x="238" y="15" type="curve" smooth="yes"/>
      <point x="165" y="15"/>
      <point x="108" y="61"/>
      <point x="108" y="168" type="curve" smooth="yes"/>
      <point x="108" y="482" type="line"/>
      <point x="82" y="482" type="line"/>
      <point x="82" y="167" type="line" smooth="yes"/>
      <point x="82" y="46"/>
      <point x="148" y="-10"/>
      <point x="238" y="-10" type="curve" smooth="yes"/>
      <point x="327" y="-10"/>
      <point x="389" y="29"/>
      <point x="415" y="98" type="curve"/>
      <point x="417" y="98" type="line"/>
      <point x="439" y="27"/>
      <point x="495" y="-10"/>
      <point x="565" y="-10" type="curve" smooth="yes"/>
      <point x="667" y="-10"/>
      <point x="713" y="44"/>
      <point x="734" y="93" type="curve"/>
      <point x="736" y="93" type="line"/>
      <point x="736" y="65"/>
      <point x="736" y="37"/>
      <point x="736" y="9" type="curve"/>
    </contour>
  </outline>
</glyph>
<glyph name="uni057B" format="2">
  <advance width="490"/>
  <unicode hex="057B"/>
  <note>
uni057B
</note>
  <outline>
    <contour>
      <point x="133" y="-207" type="line" smooth="yes"/>
      <point x="105" y="-207"/>
      <point x="98" y="-199"/>
      <point x="98" y="-182" type="curve" smooth="yes"/>
      <point x="98" y="-167"/>
      <point x="102" y="-149"/>
      <point x="133" y="-119" type="curve" smooth="yes"/>
      <point x="286" y="29" type="line" smooth="yes"/>
      <point x="407" y="146"/>
      <point x="451" y="220"/>
      <point x="451" y="301" type="curve" smooth="yes"/>
      <point x="451" y="422"/>
      <point x="380" y="492"/>
      <point x="251" y="492" type="curve" smooth="yes"/>
      <point x="122" y="492"/>
      <point x="51" y="412"/>
      <point x="51" y="302" type="curve" smooth="yes"/>
      <point x="51" y="194"/>
      <point x="84" y="147"/>
      <point x="159" y="113" type="curve" smooth="yes"/>
      <point x="229" y="81"/>
      <point x="252" y="55"/>
      <point x="268" y="26" type="curve"/>
      <point x="289" y="38" type="line"/>
      <point x="272" y="74"/>
      <point x="241" y="102"/>
      <point x="171" y="135" type="curve" smooth="yes"/>
      <point x="107" y="165"/>
      <point x="78" y="203"/>
      <point x="78" y="302" type="curve" smooth="yes"/>
      <point x="78" y="404"/>
      <point x="143" y="467"/>
      <point x="251" y="467" type="curve" smooth="yes"/>
      <point x="359" y="467"/>
      <point x="424" y="414"/>
      <point x="424" y="301" type="curve" smooth="yes"/>
      <point x="424" y="225"/>
      <point x="386" y="159"/>
      <point x="267" y="43" type="curve" smooth="yes"/>
      <point x="114" y="-105" type="line" smooth="yes"/>
      <point x="78" y="-140"/>
      <point x="73" y="-165"/>
      <point x="73" y="-185" type="curve" smooth="yes"/>
      <point x="73" y="-214"/>
      <point x="88" y="-232"/>
      <point x="136" y="-232" type="curve" smooth="yes"/>
      <point x="454" y="-232" type="line"/>
      <point x="454" y="-207" type="line"/>
    </contour>
  </outline>
</glyph>
<glyph name="uni057C" format="2">
  <advance width="543"/>
  <unicode hex="057C"/>
  <note>
uni057C
</note>
  <outline>
    <contour>
      <point x="383" y="25" type="line"/>
      <point x="463" y="142"/>
      <point x="479" y="198"/>
      <point x="479" y="297" type="curve" smooth="yes"/>
      <point x="479" y="426"/>
      <point x="412" y="492"/>
      <point x="291" y="492" type="curve" smooth="yes"/>
      <point x="194" y="492"/>
      <point x="137" y="432"/>
      <point x="114" y="371" type="curve"/>
      <point x="112" y="371" type="line"/>
      <point x="108" y="482" type="line"/>
      <point x="87" y="482" type="line"/>
      <point x="87" y="0" type="line"/>
      <point x="113" y="0" type="line"/>
      <point x="113" y="256" type="line" smooth="yes"/>
      <point x="113" y="400"/>
      <point x="191" y="467"/>
      <point x="291" y="467" type="curve" smooth="yes"/>
      <point x="393" y="467"/>
      <point x="452" y="412"/>
      <point x="452" y="297" type="curve" smooth="yes"/>
      <point x="452" y="200"/>
      <point x="437" y="147"/>
      <point x="347" y="14" type="curve"/>
      <point x="347" y="0" type="line"/>
      <point x="522" y="0" type="line"/>
      <point x="522" y="25" type="line"/>
    </contour>
  </outline>
</glyph>
<glyph name="uni057F" format="2">
  <advance width="877"/>
  <unicode hex="057F"/>
  <note>
uni057F
</note>
  <outline>
    <contour>
      <point x="629" y="492" type="curve" smooth="yes"/>
      <point x="532" y="492"/>
      <point x="475" y="432"/>
      <point x="452" y="371" type="curve"/>
      <point x="450" y="371" type="line"/>
      <point x="446" y="482" type="line"/>
      <point x="425" y="482" type="line"/>
      <point x="425" y="226" type="line" smooth="yes"/>
      <point x="425" y="82"/>
      <point x="347" y="15"/>
      <point x="247" y="15" type="curve" smooth="yes"/>
      <point x="165" y="15"/>
      <point x="108" y="66"/>
      <point x="108" y="183" type="curve" smooth="yes"/>
      <point x="108" y="482" type="line"/>
      <point x="82" y="482" type="line"/>
      <point x="82" y="182" type="line" smooth="yes"/>
      <point x="82" y="51"/>
      <point x="148" y="-10"/>
      <point x="247" y="-10" type="curve" smooth="yes"/>
      <point x="344" y="-10"/>
      <point x="401" y="50"/>
      <point x="424" y="111" type="curve"/>
      <point x="426" y="111" type="line"/>
      <point x="430" y="0" type="line"/>
      <point x="451" y="0" type="line"/>
      <point x="451" y="256" type="line" smooth="yes"/>
      <point x="451" y="400"/>
      <point x="529" y="467"/>
      <point x="629" y="467" type="curve" smooth="yes"/>
      <point x="711" y="467"/>
      <point x="768" y="416"/>
      <point x="768" y="299" type="curve" smooth="yes"/>
      <point x="768" y="0" type="line"/>
      <point x="794" y="0" type="line"/>
      <point x="794" y="300" type="line" smooth="yes"/>
      <point x="794" y="431"/>
      <point x="728" y="492"/>
    </contour>
  </outline>
</glyph>
<glyph name="uni0581" format="2">
  <advance width="550"/>
  <unicode hex="0581"/>
  <note>
uni0581
</note>
  <outline>
    <contour>
      <point x="258" y="-240" type="curve" smooth="yes"/>
      <point x="418" y="-240"/>
      <point x="462" y="-152"/>
      <point x="462" y="-25" type="curve" smooth="yes"/>
      <point x="462" y="482" type="line"/>
      <point x="440" y="482" type="line"/>
      <point x="435" y="391" type="line"/>
      <point x="433" y="391" type="line"/>
      <point x="405" y="449"/>
      <point x="353" y="492"/>
      <point x="266" y="492" type="curve" smooth="yes"/>
      <point x="132" y="492"/>
      <point x="59" y="407"/>
      <point x="59" y="233" type="curve" smooth="yes"/>
      <point x="59" y="58"/>
      <point x="136" y="-10"/>
      <point x="252" y="-10" type="curve" smooth="yes"/>
      <point x="341" y="-10"/>
      <point x="412" y="34"/>
      <point x="436" y="117" type="curve"/>
      <point x="438" y="117" type="line"/>
      <point x="436" y="78"/>
      <point x="436" y="56"/>
      <point x="436" y="17" type="curve" smooth="yes"/>
      <point x="436" y="-25" type="line" smooth="yes"/>
      <point x="436" y="-140"/>
      <point x="399" y="-215"/>
      <point x="258" y="-215" type="curve" smooth="yes"/>
      <point x="183" y="-215"/>
      <point x="135" y="-196"/>
      <point x="87" y="-173" type="curve"/>
      <point x="87" y="-203" type="line"/>
      <point x="135" y="-223"/>
      <point x="177" y="-240"/>
    </contour>
    <contour>
      <point x="252" y="15" type="curve" smooth="yes"/>
      <point x="150" y="15"/>
      <point x="86" y="76"/>
      <point x="86" y="233" type="curve" smooth="yes"/>
      <point x="86" y="394"/>
      <point x="146" y="467"/>
      <point x="266" y="467" type="curve" smooth="yes"/>
      <point x="391" y="467"/>
      <point x="436" y="373"/>
      <point x="436" y="251" type="curve" smooth="yes"/>
      <point x="436" y="246" type="line" smooth="yes"/>
      <point x="436" y="136"/>
      <point x="398" y="15"/>
    </contour>
  </outline>
</glyph>
<glyph name="uni0582" format="2">
  <advance width="228"/>
  <unicode hex="0582"/>
  <note>
uni0582
</note>
  <outline>
    <contour>
      <point x="87" y="0" type="line"/>
      <point x="214" y="0" type="line"/>
      <point x="214" y="25" type="line"/>
      <point x="113" y="25" type="line"/>
      <point x="113" y="482" type="line"/>
      <point x="87" y="482" type="line"/>
    </contour>
  </outline>
</glyph>
<glyph name="uni0584" format="2">
  <advance width="546"/>
  <unicode hex="0584"/>
  <note>
uni0584
</note>
  <outline>
    <contour>
      <point x="87" y="-232" type="line"/>
      <point x="113" y="-232" type="line"/>
      <point x="113" y="-103" type="line"/>
      <point x="440" y="-103" type="line"/>
      <point x="440" y="-78" type="line"/>
      <point x="113" y="-78" type="line"/>
      <point x="113" y="-15" type="line" smooth="yes"/>
      <point x="113" y="27"/>
      <point x="113" y="61"/>
      <point x="111" y="106" type="curve"/>
      <point x="113" y="106" type="line"/>
      <point x="135" y="36"/>
      <point x="189" y="-10"/>
      <point x="284" y="-10" type="curve" smooth="yes"/>
      <point x="412" y="-10"/>
      <point x="486" y="91"/>
      <point x="486" y="246" type="curve" smooth="yes"/>
      <point x="486" y="399"/>
      <point x="420" y="492"/>
      <point x="293" y="492" type="curve" smooth="yes"/>
      <point x="193" y="492"/>
      <point x="135" y="431"/>
      <point x="113" y="361" type="curve"/>
      <point x="111" y="361" type="line"/>
      <point x="109" y="482" type="line"/>
      <point x="87" y="482" type="line"/>
      <point x="87" y="-78" type="line"/>
      <point x="17" y="-78" type="line"/>
      <point x="17" y="-103" type="line"/>
      <point x="87" y="-103" type="line"/>
    </contour>
    <contour>
      <point x="281" y="15" type="curve" smooth="yes"/>
      <point x="178" y="15"/>
      <point x="113" y="69"/>
      <point x="113" y="239" type="curve" smooth="yes"/>
      <point x="113" y="242" type="line" smooth="yes"/>
      <point x="113" y="375"/>
      <point x="175" y="467"/>
      <point x="291" y="467" type="curve" smooth="yes"/>
      <point x="401" y="467"/>
      <point x="459" y="388"/>
      <point x="459" y="246" type="curve" smooth="yes"/>
      <point x="459" y="101"/>
      <point x="393" y="15"/>
    </contour>
  </outline>
</glyph>
<glyph name="uni0585" format="2">
  <advance width="544"/>
  <unicode hex="0585"/>
  <note>
uni0585
</note>
  <anchor x="272" y="492" name="top"/>
  <outline>
    <contour>
      <point x="271" y="-10" type="curve" smooth="yes"/>
      <point x="418" y="-10"/>
      <point x="485" y="99"/>
      <point x="485" y="241" type="curve" smooth="yes"/>
      <point x="485" y="381"/>
      <point x="425" y="492"/>
      <point x="277" y="492" type="curve" smooth="yes"/>
      <point x="139" y="492"/>
      <point x="59" y="395"/>
      <point x="59" y="241" type="curve" smooth="yes"/>
      <point x="59" y="97"/>
      <point x="129" y="-10"/>
    </contour>
    <contour>
      <point x="271" y="15" type="curve" smooth="yes"/>
      <point x="146" y="15"/>
      <point x="86" y="108"/>
      <point x="86" y="241" type="curve" smooth="yes"/>
      <point x="86" y="383"/>
      <point x="154" y="467"/>
      <point x="277" y="467" type="curve" smooth="yes"/>
      <point x="407" y="467"/>
      <point x="458" y="366"/>
      <point x="458" y="241" type="curve" smooth="yes"/>
      <point x="458" y="109"/>
      <point x="401" y="15"/>
    </contour>
  </outline>
</glyph>
<glyph name="uni0586" format="2">
  <advance width="483"/>
  <unicode hex="0586"/>
  <note>
uni0586
</note>
  <outline>
    <contour>
      <point x="255" y="395" type="curve"/>
      <point x="255" y="714" type="line"/>
      <point x="227" y="714" type="line" smooth="yes"/>
      <point x="127" y="714"/>
      <point x="70" y="642"/>
      <point x="70" y="567" type="curve" smooth="yes"/>
      <point x="70" y="494"/>
      <point x="100" y="432"/>
      <point x="229" y="377" type="curve"/>
      <point x="229" y="15" type="line"/>
      <point x="155" y="17"/>
      <point x="100" y="31"/>
      <point x="50" y="53" type="curve"/>
      <point x="50" y="24" type="line"/>
      <point x="95" y="7"/>
      <point x="146" y="-8"/>
      <point x="229" y="-10" type="curve"/>
      <point x="229" y="-232" type="line"/>
      <point x="255" y="-232" type="line"/>
      <point x="255" y="-10" type="line"/>
      <point x="353" y="-7"/>
      <point x="428" y="71"/>
      <point x="428" y="166" type="curve" smooth="yes"/>
      <point x="428" y="269"/>
      <point x="386" y="334"/>
    </contour>
    <contour>
      <point x="97" y="566" type="curve" smooth="yes"/>
      <point x="97" y="638"/>
      <point x="151" y="689"/>
      <point x="229" y="689" type="curve"/>
      <point x="229" y="405" type="line"/>
      <point x="128" y="448"/>
      <point x="97" y="503"/>
    </contour>
    <contour>
      <point x="255" y="15" type="curve"/>
      <point x="255" y="367" type="line"/>
      <point x="356" y="321"/>
      <point x="401" y="260"/>
      <point x="401" y="167" type="curve" smooth="yes"/>
      <point x="401" y="89"/>
      <point x="335" y="15"/>
    </contour>
  </outline>
</glyph>
<glyph name="uni0587" format="2">
  <advance width="544"/>
  <unicode hex="0587"/>
  <note>
uni0587
</note>
  <outline>
    <contour>
      <point x="252" y="-10" type="curve" smooth="yes"/>
      <point x="354" y="-10"/>
      <point x="401" y="50"/>
      <point x="424" y="111" type="curve"/>
      <point x="426" y="111" type="line"/>
      <point x="430" y="0" type="line"/>
      <point x="539" y="0" type="line"/>
      <point x="539" y="25" type="line"/>
      <point x="451" y="25" type="line"/>
      <point x="451" y="482" type="line"/>
      <point x="425" y="482" type="line"/>
      <point x="425" y="226" type="line" smooth="yes"/>
      <point x="425" y="82"/>
      <point x="357" y="15"/>
      <point x="252" y="15" type="curve" smooth="yes"/>
      <point x="163" y="15"/>
      <point x="108" y="68"/>
      <point x="108" y="186" type="curve" smooth="yes"/>
      <point x="108" y="760" type="line"/>
      <point x="82" y="760" type="line"/>
      <point x="82" y="182" type="line" smooth="yes"/>
      <point x="82" y="57"/>
      <point x="144" y="-10"/>
    </contour>
  </outline>
</glyph>
<glyph name="uni0588" format="2">
  <advance width="198"/>
  <unicode hex="0588"/>
  <note>
uni0575
</note>
  <outline>
    <contour>
      <point x="86" y="106" type="line"/>
      <point x="112" y="106" type="line"/>
      <point x="112" y="482" type="line"/>
      <point x="86" y="482" type="line"/>
    </contour>
    <contour>
      <point x="86" y="106" type="line"/>
      <point x="86" y="56"/>
      <point x="93" y="18"/>
      <point x="106" y="-16" type="curve" smooth="yes"/>
      <point x="119" y="-50"/>
      <point x="126" y="-85"/>
      <point x="126" y="-118" type="curve" smooth="yes"/>
      <point x="126" y="-168"/>
      <point x="97" y="-207"/>
      <point x="50" y="-207" type="curve" smooth="yes"/>
      <point x="45" y="-207" type="line"/>
      <point x="45" y="-232" type="line"/>
      <point x="50" y="-232" type="line" smooth="yes"/>
      <point x="113" y="-232"/>
      <point x="153" y="-180"/>
      <point x="153" y="-118" type="curve" smooth="yes"/>
      <point x="153" y="-82"/>
      <point x="146" y="-44"/>
      <point x="132" y="-12" type="curve" smooth="yes"/>
      <point x="118" y="20"/>
      <point x="112" y="58"/>
      <point x="112" y="106" type="curve"/>
    </contour>
    <contour>
      <point x="6" y="112" type="line"/>
      <point x="6" y="87" type="line"/>
      <point x="192" y="87" type="line"/>
      <point x="192" y="112" type="line"/>
    </contour>
  </outline>
</glyph>
<glyph name="uni058A" format="2">
  <advance width="413"/>
  <unicode hex="058A"/>
  <note>
uni058A
</note>
  <outline>
    <contour>
      <point x="218" y="218" type="curve" smooth="yes"/>
      <point x="269" y="218"/>
      <point x="317" y="225"/>
      <point x="358" y="237" type="curve"/>
      <point x="358" y="263" type="line"/>
      <point x="307" y="250"/>
      <point x="259" y="244"/>
      <point x="216" y="244" type="curve" smooth="yes"/>
      <point x="106" y="244"/>
      <point x="81" y="276"/>
      <point x="81" y="309" type="curve"/>
      <point x="56" y="309" type="line"/>
      <point x="56" y="245"/>
      <point x="103" y="218"/>
    </contour>
  </outline>
</glyph>
<glyph name="uni058E" format="2">
  <advance width="810"/>
  <unicode hex="058E"/>
  <outline>
    <contour>
      <point x="405" y="-9" type="curve" smooth="yes"/>
      <point x="455" y="-9"/>
      <point x="501" y="12"/>
      <point x="535" y="44" type="curve"/>
      <point x="631" y="46"/>
      <point x="716" y="124"/>
      <point x="718" y="226" type="curve"/>
      <point x="751" y="260"/>
      <point x="771" y="306"/>
      <point x="771" y="357" type="curve" smooth="yes"/>
      <point x="771" y="406"/>
      <point x="751" y="453"/>
      <point x="718" y="487" type="curve"/>
      <point x="716" y="583"/>
      <point x="639" y="666"/>
      <point x="536" y="670" type="curve"/>
      <point x="502" y="703"/>
      <point x="455" y="723"/>
      <point x="405" y="723" type="curve" smooth="yes"/>
      <point x="354" y="723"/>
      <point x="309" y="703"/>
      <point x="275" y="670" type="curve"/>
      <point x="178" y="668"/>
      <point x="96" y="591"/>
      <point x="92" y="488" type="curve"/>
      <point x="59" y="454"/>
      <point x="39" y="408"/>
      <point x="39" y="357" type="curve" smooth="yes"/>
      <point x="39" y="306"/>
      <point x="59" y="261"/>
      <point x="92" y="227" type="curve"/>
      <point x="94" y="127"/>
      <point x="175" y="47"/>
      <point x="275" y="43" type="curve"/>
      <point x="309" y="11"/>
      <point x="355" y="-9"/>
    </contour>
    <contour>
      <point x="249" y="74" type="curve"/>
      <point x="174" y="89"/>
      <point x="119" y="154"/>
      <point x="119" y="231" type="curve" smooth="yes"/>
      <point x="119" y="319"/>
      <point x="188" y="394"/>
      <point x="283" y="394" type="curve" smooth="yes"/>
      <point x="314" y="394"/>
      <point x="345" y="386"/>
      <point x="371" y="368" type="curve"/>
      <point x="282" y="352"/>
      <point x="215" y="275"/>
      <point x="215" y="182" type="curve" smooth="yes"/>
      <point x="215" y="142"/>
      <point x="227" y="105"/>
    </contour>
    <contour>
      <point x="405" y="19" type="curve" smooth="yes"/>
      <point x="317" y="19"/>
      <point x="244" y="92"/>
      <point x="244" y="182" type="curve" smooth="yes"/>
      <point x="244" y="260"/>
      <point x="300" y="325"/>
      <point x="374" y="340" type="curve"/>
      <point x="351" y="307"/>
      <point x="340" y="270"/>
      <point x="340" y="232" type="curve" smooth="yes"/>
      <point x="340" y="141"/>
      <point x="406" y="62"/>
      <point x="494" y="47" type="curve"/>
      <point x="469" y="30"/>
      <point x="438" y="19"/>
    </contour>
    <contour>
      <point x="94" y="267" type="curve"/>
      <point x="76" y="293"/>
      <point x="67" y="324"/>
      <point x="67" y="357" type="curve" smooth="yes"/>
      <point x="67" y="445"/>
      <point x="140" y="518"/>
      <point x="230" y="518" type="curve" smooth="yes"/>
      <point x="308" y="518"/>
      <point x="373" y="462"/>
      <point x="388" y="388" type="curve"/>
      <point x="355" y="411"/>
      <point x="318" y="422"/>
      <point x="280" y="422" type="curve" smooth="yes"/>
      <point x="189" y="422"/>
      <point x="111" y="356"/>
    </contour>
    <contour>
      <point x="531" y="72" type="curve" smooth="yes"/>
      <point x="439" y="72"/>
      <point x="368" y="143"/>
      <point x="368" y="235" type="curve" smooth="yes"/>
      <point x="368" y="266"/>
      <point x="376" y="297"/>
      <point x="394" y="323" type="curve"/>
      <point x="410" y="234"/>
      <point x="487" y="167"/>
      <point x="580" y="167" type="curve" smooth="yes"/>
      <point x="620" y="167"/>
      <point x="657" y="179"/>
      <point x="687" y="200" type="curve"/>
      <point x="672" y="127"/>
      <point x="612" y="72"/>
    </contour>
    <contour>
      <point x="416" y="391" type="curve"/>
      <point x="400" y="480"/>
      <point x="323" y="547"/>
      <point x="230" y="547" type="curve" smooth="yes"/>
      <point x="190" y="547"/>
      <point x="153" y="535"/>
      <point x="123" y="514" type="curve"/>
      <point x="138" y="591"/>
      <point x="201" y="642"/>
      <point x="279" y="642" type="curve" smooth="yes"/>
      <point x="371" y="642"/>
      <point x="442" y="571"/>
      <point x="442" y="479" type="curve" smooth="yes"/>
      <point x="442" y="448"/>
      <point x="434" y="417"/>
    </contour>
    <contour>
      <point x="580" y="196" type="curve" smooth="yes"/>
      <point x="502" y="196"/>
      <point x="437" y="252"/>
      <point x="422" y="326" type="curve"/>
      <point x="455" y="303"/>
      <point x="492" y="292"/>
      <point x="530" y="292" type="curve" smooth="yes"/>
      <point x="621" y="292"/>
      <point x="700" y="358"/>
      <point x="715" y="446" type="curve"/>
      <point x="733" y="421"/>
      <point x="743" y="390"/>
      <point x="743" y="357" type="curve" smooth="yes"/>
      <point x="743" y="269"/>
      <point x="670" y="196"/>
    </contour>
    <contour>
      <point x="436" y="374" type="curve"/>
      <point x="459" y="407"/>
      <point x="470" y="444"/>
      <point x="470" y="482" type="curve" smooth="yes"/>
      <point x="470" y="573"/>
      <point x="404" y="652"/>
      <point x="316" y="667" type="curve"/>
      <point x="341" y="685"/>
      <point x="373" y="695"/>
      <point x="405" y="695" type="curve" smooth="yes"/>
      <point x="493" y="695"/>
      <point x="566" y="622"/>
      <point x="566" y="532" type="curve" smooth="yes"/>
      <point x="566" y="454"/>
      <point x="510" y="389"/>
    </contour>
    <contour>
      <point x="527" y="320" type="curve" smooth="yes"/>
      <point x="496" y="320"/>
      <point x="465" y="328"/>
      <point x="439" y="346" type="curve"/>
      <point x="528" y="362"/>
      <point x="595" y="439"/>
      <point x="595" y="532" type="curve" smooth="yes"/>
      <point x="595" y="572"/>
      <point x="583" y="609"/>
      <point x="562" y="640" type="curve"/>
      <point x="634" y="625"/>
      <point x="691" y="562"/>
      <point x="691" y="483" type="curve" smooth="yes"/>
      <point x="691" y="395"/>
      <point x="622" y="320"/>
    </contour>
  </outline>
</glyph>
<glyph name="uni058F" format="2">
  <advance width="678"/>
  <unicode hex="058F"/>
  <note>
uni058F
</note>
  <outline>
    <contour>
      <point x="534" y="0" type="line"/>
      <point x="534" y="462" type="line" smooth="yes"/>
      <point x="534" y="640"/>
      <point x="449" y="724"/>
      <point x="299" y="724" type="curve" smooth="yes"/>
      <point x="139" y="724"/>
      <point x="59" y="633"/>
      <point x="59" y="460" type="curve"/>
      <point x="85" y="460" type="line"/>
      <point x="85" y="620"/>
      <point x="156" y="699"/>
      <point x="300" y="699" type="curve" smooth="yes"/>
      <point x="437" y="699"/>
      <point x="508" y="622"/>
      <point x="508" y="470" type="curve" smooth="yes"/>
      <point x="508" y="0" type="line"/>
    </contour>
    <contour>
      <point x="388" y="359" type="line"/>
      <point x="388" y="334" type="line"/>
      <point x="654" y="334" type="line"/>
      <point x="654" y="359" type="line"/>
    </contour>
    <contour>
      <point x="388" y="239" type="line"/>
      <point x="388" y="214" type="line"/>
      <point x="654" y="214" type="line"/>
      <point x="654" y="239" type="line"/>
    </contour>
  </outline>
</glyph>
<glyph name="uniFB13" format="2">
  <advance width="1066"/>
  <unicode hex="FB13"/>
  <note>
uniFB13
</note>
  <outline>
    <contour>
      <point x="451" y="427" type="line" smooth="yes"/>
      <point x="451" y="478"/>
      <point x="426" y="521"/>
      <point x="378" y="570" type="curve" smooth="yes"/>
      <point x="307" y="643"/>
      <point x="304" y="650"/>
      <point x="304" y="682" type="curve" smooth="yes"/>
      <point x="304" y="715"/>
      <point x="324" y="735"/>
      <point x="367" y="735" type="curve" smooth="yes"/>
      <point x="649" y="735" type="line"/>
      <point x="649" y="760" type="line"/>
      <point x="368" y="760" type="line" smooth="yes"/>
      <point x="310" y="760"/>
      <point x="278" y="729"/>
      <point x="278" y="681" type="curve" smooth="yes"/>
      <point x="278" y="637"/>
      <point x="298" y="614"/>
      <point x="360" y="553" type="curve" smooth="yes"/>
      <point x="404" y="510"/>
      <point x="425" y="466"/>
      <point x="425" y="422" type="curve" smooth="yes"/>
      <point x="425" y="226" type="line" smooth="yes"/>
      <point x="425" y="79"/>
      <point x="347" y="15"/>
      <point x="247" y="15" type="curve" smooth="yes"/>
      <point x="165" y="15"/>
      <point x="108" y="66"/>
      <point x="108" y="183" type="curve" smooth="yes"/>
      <point x="108" y="482" type="line"/>
      <point x="82" y="482" type="line"/>
      <point x="82" y="182" type="line" smooth="yes"/>
      <point x="82" y="51"/>
      <point x="148" y="-10"/>
      <point x="247" y="-10" type="curve" smooth="yes"/>
      <point x="344" y="-10"/>
      <point x="401" y="50"/>
      <point x="424" y="111" type="curve"/>
      <point x="426" y="111" type="line"/>
      <point x="430" y="0" type="line"/>
      <point x="451" y="0" type="line"/>
    </contour>
    <contour>
      <point x="750" y="530" type="line"/>
      <point x="606" y="340"/>
      <point x="586" y="269"/>
      <point x="586" y="185" type="curve" smooth="yes"/>
      <point x="586" y="56"/>
      <point x="653" y="-10"/>
      <point x="774" y="-10" type="curve" smooth="yes"/>
      <point x="871" y="-10"/>
      <point x="928" y="50"/>
      <point x="951" y="111" type="curve"/>
      <point x="953" y="111" type="line"/>
      <point x="957" y="0" type="line"/>
      <point x="978" y="0" type="line"/>
      <point x="978" y="482" type="line"/>
      <point x="952" y="482" type="line"/>
      <point x="952" y="226" type="line" smooth="yes"/>
      <point x="952" y="82"/>
      <point x="874" y="15"/>
      <point x="774" y="15" type="curve" smooth="yes"/>
      <point x="672" y="15"/>
      <point x="613" y="70"/>
      <point x="613" y="185" type="curve" smooth="yes"/>
      <point x="613" y="279"/>
      <point x="645" y="343"/>
      <point x="781" y="530" type="curve"/>
      <point x="781" y="541" type="line"/>
      <point x="765" y="551" type="line"/>
    </contour>
    <contour>
      <point x="781" y="541" type="line"/>
      <point x="672" y="609" type="line" smooth="yes"/>
      <point x="642" y="628"/>
      <point x="627" y="646"/>
      <point x="627" y="667" type="curve" smooth="yes"/>
      <point x="627" y="679"/>
      <point x="632" y="692"/>
      <point x="643" y="707" type="curve" smooth="yes"/>
      <point x="671" y="746" type="line"/>
      <point x="649" y="760" type="line"/>
      <point x="621" y="719" type="line" smooth="yes"/>
      <point x="607" y="699"/>
      <point x="601" y="681"/>
      <point x="601" y="665" type="curve" smooth="yes"/>
      <point x="601" y="637"/>
      <point x="620" y="613"/>
      <point x="659" y="588" type="curve" smooth="yes"/>
      <point x="750" y="530" type="line"/>
    </contour>
  </outline>
</glyph>
<glyph name="uniFB14" format="2">
  <advance width="1108"/>
  <unicode hex="FB14"/>
  <note>
uniFB14
</note>
  <outline>
    <contour>
      <point x="451" y="427" type="line"/>
      <point x="451" y="478"/>
      <point x="426" y="521"/>
      <point x="378" y="570" type="curve" smooth="yes"/>
      <point x="307" y="643"/>
      <point x="304" y="650"/>
      <point x="304" y="682" type="curve" smooth="yes"/>
      <point x="304" y="710"/>
      <point x="324" y="735"/>
      <point x="367" y="735" type="curve" smooth="yes"/>
      <point x="661" y="735" type="line"/>
      <point x="661" y="760" type="line"/>
      <point x="368" y="760" type="line" smooth="yes"/>
      <point x="310" y="760"/>
      <point x="278" y="729"/>
      <point x="278" y="681" type="curve" smooth="yes"/>
      <point x="278" y="637"/>
      <point x="298" y="614"/>
      <point x="360" y="553" type="curve" smooth="yes"/>
      <point x="404" y="510"/>
      <point x="425" y="466"/>
      <point x="425" y="422" type="curve" smooth="yes"/>
      <point x="425" y="226" type="line" smooth="yes"/>
      <point x="425" y="79"/>
      <point x="347" y="15"/>
      <point x="247" y="15" type="curve" smooth="yes"/>
      <point x="165" y="15"/>
      <point x="108" y="66"/>
      <point x="108" y="183" type="curve" smooth="yes"/>
      <point x="108" y="482" type="line"/>
      <point x="82" y="482" type="line"/>
      <point x="82" y="182" type="line" smooth="yes"/>
      <point x="82" y="51"/>
      <point x="148" y="-10"/>
      <point x="247" y="-10" type="curve" smooth="yes"/>
      <point x="344" y="-10"/>
      <point x="401" y="50"/>
      <point x="424" y="111" type="curve"/>
      <point x="426" y="111" type="line"/>
      <point x="430" y="0" type="line"/>
      <point x="451" y="0" type="line"/>
    </contour>
    <contour>
      <point x="1020" y="332" type="line"/>
      <point x="994" y="332" type="line"/>
      <point x="994" y="226" type="line" smooth="yes"/>
      <point x="994" y="82"/>
      <point x="916" y="15"/>
      <point x="816" y="15" type="curve" smooth="yes"/>
      <point x="734" y="15"/>
      <point x="677" y="66"/>
      <point x="677" y="183" type="curve" smooth="yes"/>
      <point x="677" y="760" type="line"/>
      <point x="651" y="760" type="line"/>
      <point x="651" y="182" type="line" smooth="yes"/>
      <point x="651" y="51"/>
      <point x="717" y="-10"/>
      <point x="816" y="-10" type="curve" smooth="yes"/>
      <point x="913" y="-10"/>
      <point x="970" y="50"/>
      <point x="993" y="111" type="curve"/>
      <point x="995" y="111" type="line"/>
      <point x="999" y="0" type="line"/>
      <point x="1020" y="0" type="line"/>
    </contour>
    <contour>
      <point x="665" y="482" type="line"/>
      <point x="665" y="457" type="line"/>
      <point x="1043" y="457" type="line"/>
      <point x="1043" y="482" type="line"/>
    </contour>
  </outline>
</glyph>
<glyph name="uniFB15" format="2">
  <advance width="1103"/>
  <unicode hex="FB15"/>
  <note>
uniFB15
</note>
  <outline>
    <contour>
      <point x="451" y="427" type="line" smooth="yes"/>
      <point x="451" y="478"/>
      <point x="426" y="521"/>
      <point x="378" y="570" type="curve" smooth="yes"/>
      <point x="307" y="643"/>
      <point x="304" y="650"/>
      <point x="304" y="682" type="curve" smooth="yes"/>
      <point x="304" y="710"/>
      <point x="324" y="735"/>
      <point x="367" y="735" type="curve" smooth="yes"/>
      <point x="662" y="735" type="line"/>
      <point x="662" y="760" type="line"/>
      <point x="368" y="760" type="line" smooth="yes"/>
      <point x="310" y="760"/>
      <point x="278" y="729"/>
      <point x="278" y="681" type="curve" smooth="yes"/>
      <point x="278" y="637"/>
      <point x="298" y="614"/>
      <point x="360" y="553" type="curve" smooth="yes"/>
      <point x="404" y="510"/>
      <point x="425" y="466"/>
      <point x="425" y="422" type="curve" smooth="yes"/>
      <point x="425" y="226" type="line" smooth="yes"/>
      <point x="425" y="79"/>
      <point x="347" y="15"/>
      <point x="247" y="15" type="curve" smooth="yes"/>
      <point x="165" y="15"/>
      <point x="108" y="66"/>
      <point x="108" y="183" type="curve" smooth="yes"/>
      <point x="108" y="482" type="line"/>
      <point x="82" y="482" type="line"/>
      <point x="82" y="182" type="line" smooth="yes"/>
      <point x="82" y="51"/>
      <point x="148" y="-10"/>
      <point x="247" y="-10" type="curve" smooth="yes"/>
      <point x="344" y="-10"/>
      <point x="401" y="50"/>
      <point x="424" y="111" type="curve"/>
      <point x="426" y="111" type="line"/>
      <point x="430" y="0" type="line"/>
      <point x="451" y="0" type="line"/>
    </contour>
    <contour>
      <point x="677" y="760" type="line"/>
      <point x="651" y="760" type="line"/>
      <point x="651" y="-232" type="line"/>
      <point x="677" y="-232" type="line"/>
      <point x="677" y="256" type="line" smooth="yes"/>
      <point x="677" y="400"/>
      <point x="750" y="467"/>
      <point x="855" y="467" type="curve" smooth="yes"/>
      <point x="942" y="467"/>
      <point x="994" y="416"/>
      <point x="994" y="299" type="curve" smooth="yes"/>
      <point x="994" y="0" type="line"/>
      <point x="1020" y="0" type="line"/>
      <point x="1020" y="300" type="line" smooth="yes"/>
      <point x="1020" y="431"/>
      <point x="959" y="492"/>
      <point x="855" y="492" type="curve" smooth="yes"/>
      <point x="753" y="492"/>
      <point x="698" y="434"/>
      <point x="677" y="371" type="curve"/>
      <point x="675" y="371" type="line"/>
      <point x="676" y="400"/>
      <point x="677" y="420"/>
      <point x="677" y="450" type="curve" smooth="yes"/>
    </contour>
  </outline>
</glyph>
<glyph name="uniFB16" format="2">
  <advance width="1051"/>
  <unicode hex="FB16"/>
  <note>
uniFB16
</note>
  <outline>
    <contour>
      <point x="451" y="-207" type="line"/>
      <point x="451" y="760" type="line"/>
      <point x="425" y="760" type="line"/>
      <point x="425" y="226" type="line" smooth="yes"/>
      <point x="425" y="82"/>
      <point x="347" y="15"/>
      <point x="247" y="15" type="curve" smooth="yes"/>
      <point x="165" y="15"/>
      <point x="108" y="66"/>
      <point x="108" y="183" type="curve" smooth="yes"/>
      <point x="108" y="482" type="line"/>
      <point x="82" y="482" type="line"/>
      <point x="82" y="182" type="line" smooth="yes"/>
      <point x="82" y="51"/>
      <point x="148" y="-10"/>
      <point x="247" y="-10" type="curve" smooth="yes"/>
      <point x="344" y="-10"/>
      <point x="401" y="50"/>
      <point x="424" y="111" type="curve"/>
      <point x="427" y="111" type="line"/>
      <point x="425" y="73"/>
      <point x="425" y="40"/>
      <point x="425" y="0" type="curve" smooth="yes"/>
      <point x="425" y="-232" type="line"/>
      <point x="550" y="-232" type="line"/>
      <point x="550" y="-207" type="line"/>
    </contour>
    <contour>
      <point x="434" y="760" type="line"/>
      <point x="434" y="735" type="line"/>
      <point x="634" y="735" type="line"/>
      <point x="634" y="760" type="line"/>
    </contour>
    <contour>
      <point x="735" y="530" type="line"/>
      <point x="590" y="340"/>
      <point x="571" y="269"/>
      <point x="571" y="185" type="curve" smooth="yes"/>
      <point x="571" y="56"/>
      <point x="638" y="-10"/>
      <point x="759" y="-10" type="curve" smooth="yes"/>
      <point x="856" y="-10"/>
      <point x="913" y="50"/>
      <point x="936" y="111" type="curve"/>
      <point x="938" y="111" type="line"/>
      <point x="942" y="0" type="line"/>
      <point x="963" y="0" type="line"/>
      <point x="963" y="482" type="line"/>
      <point x="937" y="482" type="line"/>
      <point x="937" y="226" type="line" smooth="yes"/>
      <point x="937" y="82"/>
      <point x="859" y="15"/>
      <point x="759" y="15" type="curve" smooth="yes"/>
      <point x="657" y="15"/>
      <point x="598" y="70"/>
      <point x="598" y="185" type="curve" smooth="yes"/>
      <point x="598" y="279"/>
      <point x="630" y="343"/>
      <point x="766" y="530" type="curve"/>
      <point x="766" y="541" type="line"/>
      <point x="750" y="551" type="line"/>
    </contour>
    <contour>
      <point x="766" y="541" type="line"/>
      <point x="657" y="609" type="line" smooth="yes"/>
      <point x="627" y="628"/>
      <point x="612" y="646"/>
      <point x="612" y="667" type="curve" smooth="yes"/>
      <point x="612" y="679"/>
      <point x="617" y="692"/>
      <point x="628" y="707" type="curve" smooth="yes"/>
      <point x="656" y="746" type="line"/>
      <point x="634" y="760" type="line"/>
      <point x="606" y="719" type="line" smooth="yes"/>
      <point x="592" y="699"/>
      <point x="586" y="681"/>
      <point x="586" y="665" type="curve" smooth="yes"/>
      <point x="586" y="637"/>
      <point x="605" y="613"/>
      <point x="644" y="588" type="curve" smooth="yes"/>
      <point x="735" y="530" type="line"/>
    </contour>
  </outline>
</glyph>
